<?xml version="1.0" standalone="no"?>
<!DOCTYPE svg PUBLIC "-//W3C//DTD SVG 20010904//EN"
 "http://www.w3.org/TR/2001/REC-SVG-20010904/DTD/svg10.dtd">
<svg version="1.0" xmlns="http://www.w3.org/2000/svg"
 width="1280.000000pt" height="482.000000pt" viewBox="0 0 1280.000000 482.000000"
 preserveAspectRatio="xMidYMid meet">

<g transform="translate(0.000000,482.000000) scale(0.100000,-0.100000)"
fill="#000000" stroke="none">
<path d="M5980 4803 c-2512 -61 -4700 -668 -5574 -1548 -201 -202 -319 -396
-377 -622 -34 -128 -32 -320 4 -454 214 -810 1484 -1513 3422 -1893 695 -136
1444 -221 2265 -256 304 -13 1057 -13 1365 0 2677 113 4870 829 5522 1803 264
395 253 806 -34 1211 -117 164 -348 375 -588 536 -1199 804 -3549 1283 -6005
1223z m123 -20 c-7 -2 -19 -2 -25 0 -7 3 -2 5 12 5 14 0 19 -2 13 -5z m84 1
c-3 -3 -12 -4 -19 -1 -8 3 -5 6 6 6 11 1 17 -2 13 -5z m56 -1 c-7 -2 -19 -2
-25 0 -7 3 -2 5 12 5 14 0 19 -2 13 -5z m194 1 c-3 -3 -12 -4 -19 -1 -8 3 -5
6 6 6 11 1 17 -2 13 -5z m-579 -11 c-27 -2 -69 -2 -95 0 -27 2 -5 3 47 3 52 0
74 -1 48 -3z m-250 -10 c-21 -2 -55 -2 -75 0 -21 2 -4 4 37 4 41 0 58 -2 38
-4z m1347 -3 c363 -12 572 -24 895 -51 2068 -171 3782 -728 4517 -1467 402
-404 494 -834 272 -1262 -467 -896 -2305 -1617 -4714 -1849 -592 -57 -1050
-75 -1765 -68 -577 5 -805 16 -1290 57 -1115 96 -2159 312 -2980 617 -1055
392 -1684 890 -1823 1443 -31 125 -29 310 6 441 116 440 550 853 1262 1199
1329 646 3502 1009 5620 940z m-1528 -7 c-20 -2 -52 -2 -70 0 -17 2 0 4 38 4
39 0 53 -2 32 -4z m-150 -10 c-20 -2 -52 -2 -70 0 -17 2 0 4 38 4 39 0 53 -2
32 -4z m-139 -10 c-15 -2 -42 -2 -60 0 -18 2 -6 4 27 4 33 0 48 -2 33 -4z
m-120 -10 c-15 -2 -42 -2 -60 0 -18 2 -6 4 27 4 33 0 48 -2 33 -4z m-263 -24
c-1441 -156 -2603 -453 -3475 -888 -729 -364 -1132 -769 -1235 -1243 -7 -34
-14 -51 -14 -37 -3 88 91 328 179 460 176 261 450 494 850 724 661 380 1611
680 2748 869 363 60 946 133 1067 134 28 0 -26 -9 -120 -19z m-4728 -2276 c-2
-16 -4 -3 -4 27 0 30 2 43 4 28 2 -16 2 -40 0 -55z m12669 -380 c-8 -15 -15
-25 -16 -21 0 12 23 58 27 54 3 -2 -2 -17 -11 -33z m-56 -115 c-126 -222 -369
-466 -653 -656 -679 -455 -1683 -805 -2929 -1021 -435 -76 -1047 -151 -1348
-165 -89 -4 -82 -3 45 9 1560 148 2797 448 3720 901 572 280 961 596 1158 940
23 40 43 71 45 69 2 -2 -15 -36 -38 -77z m-5067 -1855 c-18 -2 -48 -2 -65 0
-18 2 -4 4 32 4 36 0 50 -2 33 -4z m-155 -10 c-21 -2 -55 -2 -75 0 -21 2 -4 4
37 4 41 0 58 -2 38 -4z m-175 -10 c-24 -2 -62 -2 -85 0 -24 2 -5 4 42 4 47 0
66 -2 43 -4z m-225 -10 c-26 -2 -71 -2 -100 0 -29 2 -8 3 47 3 55 0 79 -1 53
-3z m-455 -10 c-7 -2 -21 -2 -30 0 -10 3 -4 5 12 5 17 0 24 -2 18 -5z m50 0
c-7 -2 -19 -2 -25 0 -7 3 -2 5 12 5 14 0 19 -2 13 -5z m80 0 c-13 -2 -33 -2
-45 0 -13 2 -3 4 22 4 25 0 35 -2 23 -4z"/>
<path d="M5835 4319 c-2090 -65 -3930 -505 -4779 -1143 -356 -268 -525 -580
-473 -871 51 -281 274 -545 672 -794 133 -84 462 -245 655 -322 291 -116 662
-231 1024 -319 1428 -347 3228 -461 4946 -315 2204 188 3902 802 4265 1540 57
117 77 197 77 315 1 204 -84 388 -266 578 -288 300 -772 560 -1461 785 -1223
400 -2925 599 -4660 546z m1375 -109 c1410 -66 2658 -284 3578 -626 217 -81
582 -242 582 -257 0 -2 -93 14 -207 35 -804 149 -1587 258 -2413 333 -151 13
-317 26 -369 27 l-94 3 -14 -42 c-41 -120 -268 -270 -496 -328 -345 -87 -700
-53 -1357 128 -214 60 -511 137 -524 137 -4 0 -6 -11 -6 -24 0 -19 -26 -44
-122 -119 -284 -221 -456 -400 -578 -601 l-24 -39 190 7 c104 4 205 9 226 13
l36 5 0 58 c0 104 24 169 88 240 71 79 151 108 235 86 92 -24 133 -84 127
-185 -7 -120 -80 -223 -192 -272 -31 -13 -54 -28 -53 -34 2 -5 29 -29 60 -53
31 -24 57 -51 57 -60 0 -25 -41 -62 -70 -62 -32 0 -109 47 -172 106 l-48 45
-62 -6 c-230 -19 -506 -48 -524 -55 -12 -5 -45 -47 -75 -97 -316 -526 -536
-836 -748 -1055 -277 -287 -512 -409 -816 -425 -364 -19 -656 176 -729 487
-23 94 -21 259 4 355 38 149 136 309 243 397 173 143 378 208 455 143 37 -31
48 -69 28 -99 -8 -13 -47 -42 -88 -66 -95 -56 -224 -186 -261 -262 -57 -119
-59 -221 -6 -327 95 -190 335 -242 602 -131 234 97 527 379 865 835 l134 180
-34 3 c-86 7 -235 -42 -341 -112 -61 -41 -98 -45 -127 -16 -100 100 154 241
552 305 l107 18 144 191 c214 284 440 496 652 611 47 26 85 51 85 56 0 11 -3
11 -235 53 -355 65 -411 70 -670 71 -246 0 -303 -6 -464 -52 -220 -62 -402
-196 -473 -350 -89 -189 -15 -343 166 -343 148 0 340 119 467 291 42 56 57 69
79 69 70 0 72 -77 7 -205 -141 -280 -355 -464 -598 -516 -29 -6 -94 -9 -145
-7 -75 4 -104 11 -157 36 -161 75 -247 218 -247 411 0 177 71 340 214 489 l41
44 -45 -6 c-25 -4 -144 -18 -265 -32 -477 -54 -1207 -167 -1710 -263 -115 -22
-210 -39 -212 -37 -2 1 63 35 144 74 1018 490 2582 784 4438 836 199 5 935 -3
1165 -14z m2946 -1093 c4 -4 3 -17 -3 -30 -6 -12 -170 -270 -365 -572 -702
-1090 -720 -1122 -668 -1188 18 -23 29 -27 68 -27 103 0 229 89 487 345 92 91
175 165 184 165 17 0 101 -76 101 -91 0 -28 -302 -347 -430 -454 -259 -216
-503 -288 -649 -192 -42 28 -89 108 -99 168 -4 24 -12 44 -17 46 -6 2 -37 -20
-70 -48 -80 -68 -178 -125 -267 -156 -63 -22 -85 -25 -168 -21 -79 4 -104 9
-148 32 -159 81 -230 226 -219 444 3 56 4 102 2 102 -2 0 -37 -18 -78 -40
-211 -114 -366 -120 -481 -19 -53 47 -93 123 -102 197 -4 29 -9 54 -13 56 -3
3 -114 -164 -246 -370 l-240 -374 -171 0 c-94 0 -173 3 -177 6 -10 10 22 65
171 300 170 268 308 498 375 623 97 180 54 258 -99 181 -144 -72 -363 -307
-629 -675 -135 -186 -276 -315 -430 -392 -232 -117 -483 -87 -639 77 -50 53
-70 85 -115 194 l-12 28 -62 -59 c-72 -68 -142 -125 -175 -142 -28 -15 -47 -1
-94 67 -22 32 -28 49 -22 62 5 9 46 50 91 89 103 90 162 168 203 268 110 266
239 453 393 568 126 95 329 179 465 191 57 5 71 4 91 -13 21 -17 61 -101 61
-129 0 -6 -55 -39 -122 -72 -203 -99 -339 -220 -416 -370 -142 -274 -67 -517
161 -515 179 1 382 188 461 423 49 147 55 292 19 462 -19 95 -13 109 75 156
104 56 150 38 193 -77 23 -61 49 -185 49 -232 0 -16 3 -29 7 -29 4 0 77 71
163 158 213 218 317 282 471 290 61 3 86 0 121 -16 78 -34 128 -126 128 -234
0 -26 2 -48 5 -48 3 0 47 42 98 94 76 79 106 101 172 133 73 35 87 38 165 38
94 0 129 -13 188 -69 55 -51 76 -101 76 -176 -1 -149 -108 -270 -238 -270
-112 0 -186 76 -186 193 0 44 -8 46 -42 10 -96 -101 -120 -285 -47 -368 40
-45 77 -58 151 -53 122 8 235 81 520 335 262 234 385 313 551 355 213 54 434
-41 478 -204 6 -22 15 -38 22 -35 11 3 208 300 474 712 64 99 123 186 132 193
12 11 54 13 188 10 95 -2 176 -7 179 -11z"/>
<path d="M6510 3785 c195 -32 387 -47 678 -52 296 -5 614 10 581 27 -19 10
-559 29 -989 35 -330 4 -349 3 -270 -10z"/>
<path d="M5811 3101 c-40 -37 -61 -88 -61 -146 0 -52 10 -56 71 -25 44 23 94
86 104 130 16 71 -55 96 -114 41z"/>
<path d="M8763 2216 c-114 -37 -258 -165 -357 -316 -98 -148 -136 -253 -136
-376 0 -57 4 -78 23 -105 65 -98 190 -85 347 36 107 84 227 230 291 357 l28
56 -21 14 -22 15 27 81 c30 92 34 140 13 181 -31 58 -113 83 -193 57z"/>
<path d="M12104 3106 c222 -226 326 -446 326 -691 0 -256 -109 -475 -354 -713
-194 -188 -412 -334 -741 -497 -1363 -674 -3711 -1009 -6030 -859 -1560 100
-2925 405 -3850 859 -315 155 -560 321 -746 505 -169 167 -252 291 -311 460
-31 90 -33 102 -33 240 0 124 3 156 23 220 49 157 136 298 268 439 l83 88
-142 -34 c-78 -19 -163 -39 -189 -44 -43 -10 -50 -16 -108 -97 -76 -106 -131
-219 -166 -337 -24 -78 -27 -109 -28 -230 0 -116 3 -155 22 -225 108 -403 515
-797 1161 -1124 886 -449 2175 -764 3661 -895 828 -74 1855 -79 2710 -16 1509
113 2848 422 3767 870 411 200 673 376 896 601 128 130 206 235 272 369 79
160 100 247 99 420 -1 122 -4 151 -27 228 -36 118 -76 204 -141 301 -105 157
-94 150 -311 199 l-190 43 79 -80z"/>
</g>
</svg>
