<?xml version="1.0" standalone="no"?>
<!DOCTYPE svg PUBLIC "-//W3C//DTD SVG 20010904//EN"
 "http://www.w3.org/TR/2001/REC-SVG-20010904/DTD/svg10.dtd">
<svg version="1.0" xmlns="http://www.w3.org/2000/svg"
 width="1200.000000pt" height="174.000000pt" viewBox="0 0 1200.000000 174.000000"
 preserveAspectRatio="xMidYMid meet">

<g transform="translate(0.000000,174.000000) scale(0.100000,-0.100000)"
fill="#000000" stroke="none">
<path d="M1380 1663 c-635 -67 -1110 -293 -1262 -600 l-43 -86 0 -116 c0 -114
1 -117 38 -195 137 -280 554 -501 1108 -588 194 -30 647 -32 834 -5 677 100
1130 378 1186 729 31 192 -90 400 -321 552 -233 154 -559 260 -925 301 -118
13 -516 19 -615 8z m651 -139 c213 -26 434 -79 459 -109 17 -21 -3 -43 -105
-110 -214 -143 -680 -326 -870 -342 -59 -5 -79 -2 -117 15 -62 27 -80 56 -79
131 0 46 9 84 41 164 61 158 123 233 213 263 50 17 276 11 458 -12z m-891 -45
c0 -6 -40 -63 -88 -127 -149 -198 -288 -438 -427 -738 -40 -87 -80 -163 -89
-169 -24 -15 -95 27 -180 106 -124 117 -178 241 -157 361 41 236 330 442 781
557 85 22 160 27 160 10z m1718 -228 c75 -49 169 -141 205 -203 97 -166 62
-337 -102 -490 -136 -127 -331 -224 -592 -292 -139 -37 -183 -43 -194 -26 -3
5 36 66 87 134 152 203 299 460 439 766 55 122 71 149 90 150 3 0 33 -18 67
-39z m-935 -505 c52 -22 70 -50 75 -114 7 -99 -76 -301 -157 -382 -67 -67
-102 -74 -319 -67 -193 7 -322 23 -497 62 -213 48 -236 64 -170 120 187 160
761 393 968 395 37 0 82 -6 100 -14z"/>
<path d="M3830 860 l0 -580 140 0 140 0 0 235 0 235 255 0 255 0 0 -235 0
-235 135 0 135 0 0 580 0 580 -135 0 -135 0 0 -220 0 -220 -255 0 -255 0 0
220 0 220 -140 0 -140 0 0 -580z"/>
<path d="M5017 1428 c4 -7 112 -179 240 -383 l233 -369 0 -198 0 -198 135 0
135 0 0 199 0 199 213 339 c118 186 226 357 240 381 l27 42 -164 0 -163 0
-140 -221 c-76 -122 -143 -222 -148 -223 -5 0 -72 99 -149 222 l-140 222 -164
0 c-128 0 -162 -3 -155 -12z"/>
<path d="M6360 860 l0 -580 443 0 443 0 51 25 c59 30 97 79 112 145 6 27 11
231 11 518 l0 472 -140 0 -140 0 0 -438 c0 -413 -1 -440 -18 -455 -16 -15 -49
-17 -255 -17 l-237 0 0 455 0 455 -135 0 -135 0 0 -580z"/>
<path d="M7680 860 l0 -580 135 0 135 0 0 455 0 455 238 0 c219 0 240 -2 255
-18 15 -17 17 -63 17 -455 l0 -437 140 0 141 0 -3 498 -3 498 -26 49 c-15 30
-42 62 -68 80 l-43 30 -459 3 -459 3 0 -581z"/>
<path d="M9000 860 l0 -580 443 0 443 0 51 25 c61 31 98 80 113 151 7 34 10
183 8 436 l-3 384 -26 49 c-15 30 -42 62 -68 80 l-43 30 -459 3 -459 3 0 -581z
m762 313 c17 -15 18 -38 18 -311 0 -261 -2 -298 -17 -314 -15 -16 -36 -18
-255 -18 l-238 0 0 330 0 330 237 0 c206 0 239 -2 255 -17z"/>
<path d="M10419 1412 c-43 -22 -59 -38 -81 -81 l-28 -53 0 -499 0 -499 135 0
135 0 0 180 0 180 255 0 255 0 0 -180 0 -180 135 0 135 0 0 580 0 580 -444 0
-444 0 -53 -28z m671 -372 l0 -150 -255 0 -255 0 0 128 c0 186 -22 172 271
172 l239 0 0 -150z"/>
<path d="M11640 860 l0 -580 135 0 135 0 0 580 0 580 -135 0 -135 0 0 -580z"/>
</g>
</svg>
