<?xml version="1.0" standalone="no"?>
<!DOCTYPE svg PUBLIC "-//W3C//DTD SVG 20010904//EN"
 "http://www.w3.org/TR/2001/REC-SVG-20010904/DTD/svg10.dtd">
<svg version="1.0" xmlns="http://www.w3.org/2000/svg"
 width="1200.000000pt" height="1425.000000pt" viewBox="0 0 1200.000000 1425.000000"
 preserveAspectRatio="xMidYMid meet">

<g transform="translate(0.000000,1425.000000) scale(0.100000,-0.100000)"
fill="#000000" stroke="none">
<path d="M5760 12990 c-840 -55 -1620 -263 -2350 -629 -614 -308 -1123 -680
-1610 -1177 -1736 -1775 -2151 -4424 -1040 -6644 811 -1620 2347 -2788 4150
-3155 214 -44 308 -56 328 -44 13 8 65 6 202 -10 743 -84 1504 -30 2225 159
1399 365 2622 1227 3428 2417 429 632 736 1363 882 2096 l25 129 0 1091 0
1092 -54 215 c-189 750 -526 1459 -984 2068 -326 435 -758 868 -1193 1194
-891 668 -1964 1077 -3104 1183 -202 19 -715 27 -905 15z m885 -40 c449 -42
845 -117 1240 -236 715 -216 1424 -589 1995 -1052 159 -129 253 -216 240 -220
-7 -3 57 -75 142 -161 167 -168 288 -302 409 -452 86 -106 249 -327 249 -338
0 -3 -33 -39 -74 -80 l-73 -73 -84 109 c-772 1000 -1787 1694 -2978 2038
-1152 331 -2420 287 -3546 -125 -209 -76 -358 -141 -580 -250 -1137 -560
-2076 -1492 -2615 -2595 -239 -488 -386 -952 -489 -1533 -46 -260 -66 -312
-154 -411 -64 -72 -112 -158 -131 -237 l-14 -59 -1 90 c-2 201 49 630 110 925
361 1746 1521 3238 3144 4045 285 142 486 226 770 321 517 173 1050 274 1615
308 116 7 712 -3 825 -14z m-140 -270 c698 -51 1332 -206 1940 -475 1219 -539
2198 -1474 2785 -2660 311 -626 482 -1230 552 -1945 20 -209 17 -802 -6 -1015
-34 -325 -104 -687 -187 -973 -429 -1482 -1475 -2729 -2878 -3431 -1508 -755
-3292 -811 -4843 -150 -1836 782 -3121 2461 -3367 4399 -35 275 -44 463 -38
794 6 313 19 485 58 731 216 1367 920 2581 2009 3466 695 566 1542 967 2435
1153 226 47 599 96 825 109 138 8 589 6 715 -3z m-6258 -6462 c-3 -8 -6 -5 -6
6 -1 11 2 17 5 13 3 -3 4 -12 1 -19z m10 -60 c-3 -8 -6 -5 -6 6 -1 11 2 17 5
13 3 -3 4 -12 1 -19z m89 -361 c251 -946 699 -1729 1356 -2373 330 -322 632
-552 1055 -803 95 -56 174 -105 177 -110 3 -4 -35 -47 -84 -96 l-89 -89 -73
49 c-252 167 -545 412 -809 675 -224 224 -359 378 -533 606 -518 682 -879
1467 -1051 2287 -37 177 -46 250 -13 107 10 -47 39 -161 64 -253z"/>
<path d="M5895 12604 c-884 -54 -1564 -229 -2285 -589 -2073 -1034 -3283
-3217 -3035 -5475 68 -618 235 -1198 504 -1756 775 -1601 2295 -2737 4074
-3043 345 -60 600 -81 971 -81 511 0 905 47 1381 165 1210 299 2276 984 3048
1960 1038 1310 1406 3025 997 4651 -427 1700 -1678 3117 -3330 3771 -532 211
-1055 333 -1635 383 -127 11 -589 20 -690 14z m255 -616 c1 -396 27 -4757 29
-4765 3 -13 192 79 647 314 l112 57 1936 -1452 c1906 -1429 1936 -1451 1950
-1429 36 54 190 387 249 537 194 493 305 978 347 1524 5 71 10 244 10 385 l1
256 19 -54 c11 -30 45 -94 75 -142 30 -48 65 -108 76 -134 110 -249 21 -1002
-197 -1662 -445 -1349 -1437 -2499 -2714 -3145 -632 -320 -1284 -508 -2030
-585 -236 -24 -810 -24 -1050 0 -609 62 -1132 191 -1670 414 -1058 439 -1987
1224 -2573 2174 l-66 106 34 33 33 32 53 -89 c143 -239 349 -525 535 -743 204
-240 537 -555 820 -776 86 -68 411 -291 510 -351 17 -10 28 -2 94 63 l75 74
205 -103 c339 -171 646 -292 985 -388 987 -280 2044 -274 3025 17 1179 350
2226 1119 2894 2126 54 80 61 87 104 98 53 13 162 60 162 69 0 6 -4564 2557
-4614 2579 -16 7 -33 9 -37 5 -5 -5 -13 -127 -18 -273 -14 -344 -19 -410 -35
-410 -13 0 -14 11 -32 497 -4 94 -10 177 -14 183 -5 8 -21 5 -56 -13 -27 -14
-1070 -595 -2319 -1292 -1248 -697 -2276 -1270 -2284 -1273 -8 -3 -12 1 -10
13 3 11 796 471 2279 1321 1251 717 2288 1314 2304 1327 19 15 27 28 22 36 -6
10 -12 9 -25 -5 -9 -9 -1042 -609 -2296 -1333 l-2280 -1316 -2 40 c-2 22 3 63
10 92 l12 52 1460 1092 c803 600 1680 1256 1948 1457 l488 365 239 -122 c132
-67 240 -119 240 -117 0 2 -35 25 -77 52 -159 98 -342 224 -357 246 -35 49
-34 60 229 2073 74 567 182 1388 239 1825 l105 795 33 28 c18 16 52 42 76 58
l42 30 0 -183 c0 -291 -39 -4905 -42 -4985 -3 -54 0 -73 9 -73 7 0 13 1 14 3
2 9 28 4307 29 4725 0 515 0 522 20 522 20 0 20 -7 20 -482z m-222 325 c-10
-13 -114 -698 -352 -2333 -201 -1376 -343 -2324 -352 -2336 -12 -20 -441 -352
-3037 -2351 -395 -305 -723 -551 -728 -547 -25 15 -190 376 -275 601 -158 419
-269 906 -300 1308 -6 74 -9 85 -24 80 -15 -5 -18 8 -23 107 -45 773 95 1576
397 2287 431 1012 1172 1858 2138 2442 166 100 518 277 703 353 558 229 1172
365 1800 399 33 2 62 4 64 5 2 1 -3 -6 -11 -15z m507 -3 c-3 -5 -26 -10 -51
-10 -24 0 -44 5 -44 10 0 6 23 10 51 10 31 0 48 -4 44 -10z m310 -45 c1205
-142 2301 -670 3150 -1520 658 -659 1123 -1472 1349 -2365 300 -1179 162
-2440 -384 -3530 -56 -112 -63 -121 -78 -107 -12 10 -3744 2881 -3759 2891 -4
3 -673 4623 -673 4646 0 16 194 8 395 -15z m2165 -553 c339 -208 710 -509
1014 -822 615 -636 1058 -1407 1295 -2254 54 -192 51 -209 -4 -26 -202 667
-535 1278 -994 1830 -127 153 -413 443 -571 581 -278 241 -570 446 -939 659
l-73 42 48 49 48 48 35 -21 c20 -12 83 -51 141 -86z m2357 -3274 c-3 -8 -6 -5
-6 6 -1 11 2 17 5 13 3 -3 4 -12 1 -19z m10 -40 c-3 -8 -6 -5 -6 6 -1 11 2 17
5 13 3 -3 4 -12 1 -19z m10 -40 c-3 -8 -6 -5 -6 6 -1 11 2 17 5 13 3 -3 4 -12
1 -19z m-4209 -2614 c510 -201 1071 -424 1247 -494 176 -70 752 -298 1280
-505 528 -208 963 -380 967 -384 8 -7 -121 -193 -249 -358 -199 -256 -513
-585 -748 -782 -1036 -867 -2302 -1300 -3655 -1250 -1549 57 -2981 778 -3948
1987 -93 117 -296 401 -290 407 12 12 4428 1744 4446 1745 13 0 440 -165 950
-366z"/>
<path d="M6244 7145 c-4 -10 -2 -21 7 -26 18 -11 4475 -2569 4549 -2611 30
-17 50 -26 44 -19 -6 6 -1036 603 -2290 1327 -1253 723 -2285 1322 -2291 1331
-11 15 -13 14 -19 -2z"/>
<path d="M5863 12293 c9 -2 23 -2 30 0 6 3 -1 5 -18 5 -16 0 -22 -2 -12 -5z"/>
<path d="M5708 12283 c7 -3 16 -2 19 1 4 3 -2 6 -13 5 -11 0 -14 -3 -6 -6z"/>
<path d="M921 7964 c0 -11 3 -14 6 -6 3 7 2 16 -1 19 -3 4 -6 -2 -5 -13z"/>
<path d="M912 7900 c0 -14 2 -19 5 -12 2 6 2 18 0 25 -3 6 -5 1 -5 -13z"/>
<path d="M902 7830 c0 -14 2 -19 5 -12 2 6 2 18 0 25 -3 6 -5 1 -5 -13z"/>
<path d="M892 7750 c0 -14 2 -19 5 -12 2 6 2 18 0 25 -3 6 -5 1 -5 -13z"/>
<path d="M882 7665 c0 -16 2 -22 5 -12 2 9 2 23 0 30 -3 6 -5 -1 -5 -18z"/>
<path d="M873 7555 c0 -22 2 -30 4 -17 2 12 2 30 0 40 -3 9 -5 -1 -4 -23z"/>
<path d="M863 7410 c0 -30 2 -43 4 -27 2 15 2 39 0 55 -2 15 -4 2 -4 -28z"/>
<path d="M853 7130 c0 -41 2 -58 4 -37 2 20 2 54 0 75 -2 20 -4 3 -4 -38z"/>
<path d="M863 6855 c0 -33 2 -45 4 -27 2 18 2 45 0 60 -2 15 -4 0 -4 -33z"/>
<path d="M11981 5904 c0 -11 3 -14 6 -6 3 7 2 16 -1 19 -3 4 -6 -2 -5 -13z"/>
<path d="M10909 3603 c-13 -16 -12 -17 4 -4 9 7 17 15 17 17 0 8 -8 3 -21 -13z"/>
<path d="M10744 3398 l-19 -23 23 19 c21 18 27 26 19 26 -2 0 -12 -10 -23 -22z"/>
<path d="M10684 3328 l-19 -23 23 19 c21 18 27 26 19 26 -2 0 -12 -10 -23 -22z"/>
<path d="M10609 3243 l-24 -28 28 24 c15 14 27 26 27 28 0 8 -8 1 -31 -24z"/>
<path d="M10395 3020 c-66 -66 -117 -120 -115 -120 3 0 59 54 125 120 66 66
117 120 115 120 -3 0 -59 -54 -125 -120z"/>
<path d="M10179 2813 l-24 -28 28 24 c15 14 27 26 27 28 0 8 -8 1 -31 -24z"/>
<path d="M10094 2738 l-19 -23 23 19 c21 18 27 26 19 26 -2 0 -12 -10 -23 -22z"/>
<path d="M10019 2673 c-13 -16 -12 -17 4 -4 16 13 21 21 13 21 -2 0 -10 -8
-17 -17z"/>
<path d="M9959 2623 c-13 -16 -12 -17 4 -4 16 13 21 21 13 21 -2 0 -10 -8 -17
-17z"/>
<path d="M9909 2583 c-13 -16 -12 -17 4 -4 9 7 17 15 17 17 0 8 -8 3 -21 -13z"/>
<path d="M7438 1403 c7 -3 16 -2 19 1 4 3 -2 6 -13 5 -11 0 -14 -3 -6 -6z"/>
<path d="M7238 1363 c7 -3 16 -2 19 1 4 3 -2 6 -13 5 -11 0 -14 -3 -6 -6z"/>
<path d="M7128 1343 c7 -3 16 -2 19 1 4 3 -2 6 -13 5 -11 0 -14 -3 -6 -6z"/>
<path d="M6988 1323 c6 -2 18 -2 25 0 6 3 1 5 -13 5 -14 0 -19 -2 -12 -5z"/>
<path d="M5338 1313 c7 -3 16 -2 19 1 4 3 -2 6 -13 5 -11 0 -14 -3 -6 -6z"/>
<path d="M6918 1313 c7 -3 16 -2 19 1 4 3 -2 6 -13 5 -11 0 -14 -3 -6 -6z"/>
<path d="M5418 1303 c7 -3 16 -2 19 1 4 3 -2 6 -13 5 -11 0 -14 -3 -6 -6z"/>
<path d="M6833 1303 c9 -2 23 -2 30 0 6 3 -1 5 -18 5 -16 0 -22 -2 -12 -5z"/>
<path d="M5508 1293 c7 -3 16 -2 19 1 4 3 -2 6 -13 5 -11 0 -14 -3 -6 -6z"/>
<path d="M6743 1293 c9 -2 23 -2 30 0 6 3 -1 5 -18 5 -16 0 -22 -2 -12 -5z"/>
<path d="M5618 1283 c6 -2 18 -2 25 0 6 3 1 5 -13 5 -14 0 -19 -2 -12 -5z"/>
<path d="M6633 1283 c9 -2 25 -2 35 0 9 3 1 5 -18 5 -19 0 -27 -2 -17 -5z"/>
<path d="M5763 1273 c9 -2 23 -2 30 0 6 3 -1 5 -18 5 -16 0 -22 -2 -12 -5z"/>
<path d="M6488 1273 c12 -2 32 -2 45 0 12 2 2 4 -23 4 -25 0 -35 -2 -22 -4z"/>
<path d="M6058 1263 c56 -2 148 -2 205 0 56 1 10 3 -103 3 -113 0 -159 -2
-102 -3z"/>
</g>
</svg>
