<?xml version="1.0" standalone="no"?>
<!DOCTYPE svg PUBLIC "-//W3C//DTD SVG 20010904//EN"
 "http://www.w3.org/TR/2001/REC-SVG-20010904/DTD/svg10.dtd">
<svg version="1.0" xmlns="http://www.w3.org/2000/svg"
 width="500.000000pt" height="430.000000pt" viewBox="0 0 500.000000 430.000000"
 preserveAspectRatio="xMidYMid meet">

<g transform="translate(0.000000,430.000000) scale(0.100000,-0.100000)"
fill="#000000" stroke="none">
<path d="M2068 3535 l-407 -695 407 -685 c224 -377 409 -685 412 -685 3 0 188
311 412 690 l407 690 -407 690 c-224 379 -409 690 -412 690 -3 0 -188 -313
-412 -695z"/>
<path d="M862 1428 c-11 -18 -178 -303 -372 -633 -194 -330 -365 -621 -381
-648 l-29 -47 801 2 801 3 394 670 c217 369 398 670 404 670 6 0 187 -301 404
-670 l394 -670 801 -3 800 -2 -99 167 c-54 93 -233 398 -398 678 l-300 510
-1600 3 -1600 2 -20 -32z"/>
</g>
</svg>
