<?xml version="1.0" standalone="no"?>
<!DOCTYPE svg PUBLIC "-//W3C//DTD SVG 20010904//EN"
 "http://www.w3.org/TR/2001/REC-SVG-20010904/DTD/svg10.dtd">
<svg version="1.0" xmlns="http://www.w3.org/2000/svg"
 width="1865.000000pt" height="2048.000000pt" viewBox="0 0 1865.000000 2048.000000"
 preserveAspectRatio="xMidYMid meet">

<g transform="translate(0.000000,2048.000000) scale(0.100000,-0.100000)"
fill="#000000" stroke="none">
<path d="M8295 20470 c-2258 -51 -4503 -246 -6720 -586 -348 -53 -1497 -242
-1501 -247 -1 -2 -18 -494 -39 -1167 -52 -1667 -45 -3010 20 -4115 214 -3589
1049 -6383 2630 -8795 1108 -1691 2645 -3211 4386 -4338 651 -421 1278 -763
2054 -1121 l201 -93 264 123 c803 372 1494 757 2175 1214 1515 1016 2843 2299
3881 3750 770 1076 1399 2276 1858 3548 606 1678 957 3517 1091 5717 65 1079
72 2460 20 4110 -23 718 -38 1165 -40 1167 -3 5 -1089 184 -1435 238 -2160
331 -4159 514 -6400 585 -429 14 -1990 20 -2445 10z m2285 -591 c2377 -59
4634 -273 7082 -670 l376 -61 6 -92 c7 -101 20 -510 38 -1181 15 -578 15
-2173 0 -2615 -85 -2407 -390 -4299 -977 -6055 -408 -1222 -925 -2294 -1613
-3340 -1415 -2154 -3517 -3980 -5882 -5110 -113 -54 -223 -106 -245 -115 l-41
-18 -164 77 c-1544 722 -2945 1708 -4176 2936 -676 675 -1230 1344 -1740 2100
-1700 2522 -2544 5518 -2674 9490 -18 558 -23 1440 -11 2100 12 665 36 1568
47 1731 l6 91 251 41 c3277 543 6493 772 9717 691z"/>
<path d="M8210 19549 c-2173 -48 -4467 -251 -6622 -584 -454 -70 -648 -102
-652 -106 -5 -6 -25 -670 -37 -1274 -13 -600 -6 -2126 10 -2505 46 -1048 113
-1813 231 -2645 235 -1649 631 -3077 1225 -4425 184 -419 504 -1036 754 -1455
1178 -1973 2865 -3652 4896 -4870 348 -208 831 -468 1171 -630 l141 -67 274
135 c2472 1219 4547 3118 5924 5422 1333 2232 2036 4852 2200 8200 46 953 48
2274 4 3725 -6 212 -13 387 -15 389 -5 5 -497 84 -919 147 -1868 278 -3793
455 -5700 524 -811 29 -2065 38 -2885 19z m1880 -1379 l0 -101 -512 7 c-282 4
-571 4 -643 -1 -129 -7 -129 -7 -162 -40 l-33 -33 0 -331 c0 -277 3 -337 15
-361 32 -61 19 -60 640 -60 l565 0 0 165 0 165 -320 0 -320 0 0 100 0 100 123
0 c68 0 259 -3 425 -7 l302 -6 0 -359 0 -358 -687 5 c-748 6 -767 8 -848 63
-27 18 -50 47 -70 87 l-30 60 0 390 c0 386 0 391 23 440 28 61 64 100 116 127
86 44 127 46 789 47 l627 1 0 -100z m-2092 -412 l-3 -503 -29 -58 c-57 -117
-148 -153 -421 -167 -388 -19 -838 -33 -907 -27 -99 8 -162 32 -213 81 -74 71
-75 78 -75 632 l0 483 101 3 c55 2 103 1 105 -1 2 -2 4 -215 4 -473 0 -303 4
-476 10 -489 6 -10 24 -26 41 -34 27 -15 68 -15 432 0 671 25 661 25 695 45
20 13 34 32 41 57 7 24 11 204 11 490 l0 452 63 4 c34 2 81 4 105 5 l43 2 -3
-502z m3232 482 c190 -6 485 -18 655 -25 171 -8 322 -15 338 -15 l27 0 0 -101
0 -101 -72 6 c-144 12 -1008 46 -1160 46 l-108 0 0 -148 0 -149 258 -7 c141
-4 408 -13 592 -21 184 -8 336 -15 338 -15 1 0 2 -45 2 -100 l0 -100 -42 5
c-24 3 -227 12 -453 20 -225 8 -474 17 -552 20 l-143 6 0 -164 0 -165 188 -6
c302 -11 886 -35 1025 -42 l127 -7 0 -99 0 -100 -87 6 c-134 10 -484 24 -828
36 -170 5 -383 13 -472 16 l-163 6 0 608 0 607 93 -3 c50 -2 247 -9 437 -14z
m-5410 -174 l0 -94 -57 -6 c-32 -3 -98 -8 -148 -11 -109 -7 -626 -43 -710 -50
-33 -3 -118 -9 -190 -15 -71 -6 -154 -13 -182 -16 l-53 -5 0 -150 0 -150 48 6
c85 10 1087 85 1132 85 6 0 10 -40 10 -99 l0 -98 -112 -7 c-145 -9 -570 -40
-855 -63 l-223 -17 0 -163 c0 -152 1 -163 19 -163 10 0 191 13 402 30 475 37
815 60 874 60 l45 0 0 -94 0 -95 -52 -5 c-29 -3 -161 -13 -293 -21 -349 -22
-1031 -75 -1162 -90 l-43 -5 0 609 0 608 58 6 c227 24 1296 104 1415 106 l77
1 0 -94z m7880 40 c395 -31 406 -32 502 -58 93 -24 157 -63 198 -119 57 -79
60 -107 60 -494 0 -395 -4 -426 -66 -495 -57 -63 -103 -75 -284 -75 -182 1
-964 60 -1065 81 -143 29 -218 88 -250 197 -21 71 -22 761 -1 830 23 78 64
118 151 150 44 16 74 17 240 13 105 -3 336 -16 515 -30z m1553 -141 c342 -36
712 -78 1037 -118 l185 -22 3 -97 c1 -54 -1 -98 -6 -98 -5 0 -139 16 -298 35
-159 19 -313 37 -341 40 l-53 6 0 -511 0 -511 -47 6 c-27 3 -75 9 -108 13
l-60 7 -3 511 -2 511 -63 6 c-155 15 -566 57 -604 63 l-43 5 0 95 0 94 35 0
c20 0 185 -16 368 -35z m-11606 -31 c114 -59 148 -152 141 -388 -4 -125 -8
-161 -27 -207 -25 -66 -97 -139 -164 -168 -68 -29 -123 -38 -557 -86 -223 -25
-459 -52 -525 -60 -66 -8 -123 -15 -127 -15 -4 0 -8 -85 -8 -189 l0 -188 -88
-12 c-49 -6 -96 -11 -105 -11 -16 0 -17 43 -15 607 l3 607 235 29 c1044 127
1136 133 1237 81z m6743 -2194 c507 -18 916 -45 1010 -66 174 -39 948 -424
1744 -866 466 -259 419 -225 770 -564 331 -321 481 -472 475 -478 -6 -6 -187
32 -209 44 -11 6 -78 48 -148 94 -437 284 -1144 683 -1267 715 -50 13 -321 37
-620 55 -267 17 -252 13 -552 155 -219 103 -523 236 -631 275 -40 14 -96 29
-125 32 -75 9 -1065 -21 -1522 -46 -146 -8 -184 -6 -270 9 l-100 17 105 17
c420 66 1427 166 2210 220 l185 13 -145 49 -145 50 -750 3 c-752 4 -1237 -6
-1740 -33 -319 -18 -413 -28 -480 -51 -138 -46 -920 -461 -1830 -969 -159 -89
-306 -170 -324 -180 l-35 -18 50 64 c43 54 86 88 288 224 235 159 415 297 701
539 230 195 253 219 360 388 53 84 107 164 119 176 37 42 93 63 190 73 206 20
734 50 1111 62 226 8 1336 6 1575 -3z m-2224 -1045 c6 -14 -446 -807 -503
-883 -13 -18 -41 -41 -63 -52 -50 -26 -951 -306 -1061 -331 -47 -10 -144 -23
-215 -28 -184 -14 -753 -35 -760 -28 -19 19 29 50 173 111 87 37 165 72 174
79 8 7 116 136 238 287 123 151 237 288 255 304 86 79 987 476 1229 541 37 10
120 14 290 14 203 1 238 -1 243 -14z m2311 -556 c141 -68 124 -41 179 -289 24
-108 37 -193 38 -245 1 -79 0 -82 -48 -165 -27 -47 -118 -190 -202 -319 -131
-198 -154 -239 -154 -272 0 -39 55 -315 165 -833 36 -165 63 -301 62 -303 -2
-1 -37 30 -78 70 l-75 72 -72 225 c-106 332 -241 780 -248 821 -8 45 6 72 89
175 72 89 275 361 330 443 52 75 49 101 -19 230 -30 58 -62 111 -71 118 -26
20 -165 63 -204 63 -36 0 -371 -123 -815 -299 -126 -50 -239 -91 -250 -91 -47
0 -430 73 -442 85 -11 10 -1 34 59 137 45 79 83 132 100 142 65 39 1438 311
1504 299 17 -3 85 -32 152 -64z m2458 -9 c422 -179 1180 -606 1735 -975 337
-225 410 -280 432 -325 52 -106 123 -629 149 -1089 13 -240 7 -871 -10 -1071
-22 -250 -20 -244 -141 -485 -299 -599 -646 -1177 -964 -1602 -66 -90 -122
-159 -124 -153 -2 5 4 93 12 195 9 103 16 220 16 260 0 41 5 84 11 97 6 13 52
56 103 96 170 133 202 167 270 281 210 355 491 928 558 1142 19 63 23 94 22
204 -3 305 -118 1172 -204 1533 -36 149 -61 194 -141 248 -50 33 -300 144
-599 266 -218 88 -249 106 -417 245 -419 348 -889 714 -963 751 -48 24 -66 27
-150 27 -84 -1 -128 -9 -385 -74 -159 -40 -306 -76 -326 -80 -20 -5 -117 -1
-215 8 l-179 17 60 28 c297 139 768 341 1045 447 148 57 158 59 230 56 61 -3
94 -12 175 -47z m-7016 -210 c-19 -22 -88 -82 -154 -132 -285 -218 -374 -290
-379 -306 -7 -22 -41 -241 -56 -357 -7 -59 -17 -96 -28 -107 -9 -10 -122 -58
-251 -108 -129 -49 -244 -96 -255 -104 -22 -14 -196 -166 -196 -170 0 -1 118
26 263 60 144 35 272 64 284 64 12 0 55 -13 96 -30 42 -16 93 -30 116 -30 74
0 640 138 716 175 28 13 109 67 180 119 92 68 131 91 133 80 2 -8 -3 -25 -11
-37 -32 -49 -180 -197 -224 -225 -85 -54 -914 -377 -1538 -598 -198 -71 -225
-83 -267 -123 -27 -24 -48 -47 -48 -50 0 -4 123 -17 273 -29 150 -12 290 -27
312 -33 32 -9 78 -48 234 -203 227 -224 399 -408 385 -413 -5 -1 -175 -32
-379 -68 -616 -108 -1055 -199 -1116 -231 -45 -23 -60 -68 -123 -354 -31 -140
-60 -263 -64 -273 -7 -16 -10 -16 -52 5 -25 12 -70 47 -100 78 -115 115 -370
435 -397 499 -8 19 -12 44 -9 57 7 27 133 176 309 368 76 82 128 147 143 180
24 54 96 294 92 307 -2 4 -33 -12 -69 -36 -58 -38 -70 -51 -106 -121 -23 -44
-57 -93 -75 -111 -39 -37 -387 -293 -399 -293 -4 0 -28 24 -53 54 l-46 53 0
79 c0 95 8 111 117 225 153 161 628 534 1247 980 144 103 169 125 234 210 295
382 294 380 373 439 109 81 908 564 917 555 2 -2 -11 -22 -29 -45z m2 -709
c21 -17 24 -28 24 -88 -1 -79 -20 -125 -62 -141 -33 -14 -196 -52 -220 -52
-14 0 -15 14 -8 123 4 67 11 129 15 137 6 11 39 18 112 26 57 6 106 12 109 13
4 0 17 -8 30 -18z m6166 -938 c65 -30 87 -49 215 -186 519 -553 1136 -1315
1351 -1670 51 -84 64 -134 81 -327 27 -287 36 -496 36 -820 0 -533 -33 -952
-116 -1490 -63 -412 -191 -968 -241 -1049 -20 -32 -71 -79 -168 -154 -958
-743 -2451 -1990 -2573 -2150 -53 -70 -124 -189 -267 -447 -65 -118 -128 -232
-140 -253 l-22 -38 -47 107 c-150 341 -349 850 -360 919 -12 75 49 270 224
708 153 384 502 1196 576 1337 l23 45 1 -51 c0 -34 -17 -105 -51 -215 -76
-246 -201 -691 -263 -936 -154 -608 -156 -687 -30 -1126 69 -240 56 -228 117
-112 29 55 71 127 94 160 125 184 1342 1264 2410 2138 106 87 204 172 217 190
43 57 62 156 90 462 36 389 41 534 41 1205 0 717 -8 906 -45 1038 -60 217
-276 507 -734 985 -89 93 -171 188 -184 213 -15 29 -43 142 -77 312 -54 269
-151 719 -229 1065 -49 215 -56 200 71 140z m-4013 -583 c140 -481 196 -747
176 -835 -54 -241 -909 -2113 -1049 -2295 -48 -62 -618 -635 -882 -885 -135
-128 -160 -165 -184 -268 -36 -157 -83 -643 -71 -741 13 -103 139 -325 382
-677 509 -733 1411 -1854 1854 -2300 120 -121 154 -149 308 -249 162 -106 175
-117 208 -173 19 -33 33 -62 30 -64 -9 -9 -628 310 -689 355 -81 60 -318 292
-531 522 -809 872 -1720 2019 -1904 2399 -42 84 -46 102 -50 180 -6 139 65
807 107 999 26 120 55 173 159 295 783 914 1813 2319 2074 2827 42 82 43 88
46 191 4 115 -14 297 -54 558 -20 128 -24 184 -19 250 6 90 15 145 20 139 2
-2 33 -104 69 -228z m-2265 -591 c432 -104 937 -231 968 -244 54 -23 87 -58
145 -154 73 -121 73 -140 2 -276 -132 -254 -539 -969 -617 -1085 -41 -61 -77
-99 -111 -117 -41 -21 -228 -87 -680 -239 -220 -74 -408 -141 -418 -151 -26
-23 -23 -56 22 -318 52 -305 59 -334 82 -357 26 -26 48 -23 328 42 118 28 229
53 245 56 27 5 22 -2 -50 -70 -44 -42 -98 -87 -120 -100 -41 -24 -406 -132
-482 -143 -53 -7 -87 13 -102 59 -6 19 -47 182 -90 363 -81 335 -104 412 -193
635 l-50 125 7 145 c4 80 10 162 13 182 l7 37 95 -85 c120 -108 248 -213 278
-227 27 -13 61 -5 282 65 255 80 502 168 548 195 128 73 694 917 710 1058 5
50 -28 173 -59 217 -13 18 -47 37 -102 59 -136 53 -479 177 -702 254 -185 65
-207 74 -185 84 41 16 137 12 229 -10z m-1484 -811 c-20 -139 -39 -265 -43
-280 -7 -25 -16 -16 -154 145 l-146 172 16 28 c25 44 121 128 183 162 29 16
81 37 114 46 57 15 60 15 63 -2 2 -9 -13 -131 -33 -271z m1934 -130 c-128
-205 -354 -522 -411 -576 -39 -35 -631 -241 -596 -206 30 30 1043 863 1051
863 4 1 -16 -36 -44 -81z m3086 -988 l37 -225 -65 -285 c-239 -1038 -446
-2166 -527 -2875 -25 -218 -25 -289 -1 -390 56 -232 348 -991 685 -1778 l106
-248 20 -151 c11 -83 18 -153 16 -155 -12 -12 -345 588 -623 1122 -318 610
-582 1165 -749 1575 -58 143 -59 146 -58 240 1 83 9 128 67 350 163 632 442
1488 785 2405 146 390 254 657 262 648 4 -4 24 -109 45 -233z"/>
<path d="M13019 17921 l-29 -29 0 -344 c0 -375 0 -372 59 -402 32 -17 66 -21
371 -41 124 -9 332 -25 463 -35 310 -26 292 -27 333 14 l34 34 0 331 c0 366
-2 376 -61 407 -33 17 -145 28 -714 69 -436 32 -420 32 -456 -4z"/>
<path d="M3205 17749 c-143 -16 -386 -44 -540 -62 l-280 -33 -3 -222 -2 -222
22 0 c13 0 115 11 228 25 113 13 353 40 534 60 230 25 338 41 356 52 53 31 60
57 60 217 0 145 0 146 -27 176 -16 17 -41 32 -58 34 -16 2 -147 -9 -290 -25z"/>
</g>
</svg>
