<?xml version="1.0" standalone="no"?>
<!DOCTYPE svg PUBLIC "-//W3C//DTD SVG 20010904//EN"
 "http://www.w3.org/TR/2001/REC-SVG-20010904/DTD/svg10.dtd">
<svg version="1.0" xmlns="http://www.w3.org/2000/svg"
 width="300.000000pt" height="271.000000pt" viewBox="0 0 300.000000 271.000000"
 preserveAspectRatio="xMidYMid meet">

<g transform="translate(0.000000,271.000000) scale(0.100000,-0.100000)"
fill="#000000" stroke="none">
<path d="M1237 2498 c-72 -66 -447 -754 -447 -819 0 -21 32 -95 90 -206 92
-180 305 -549 345 -599 l23 -28 168 -4 c93 -2 189 1 214 5 52 10 60 20 205
268 160 273 290 526 290 565 0 26 -29 89 -106 235 -137 258 -323 569 -351 589
-18 13 -57 16 -215 16 -185 0 -193 -1 -216 -22z m426 -5 c4 -2 5 -9 2 -14 -4
-5 1 -12 9 -15 9 -3 13 -10 11 -15 -3 -4 2 -17 12 -27 10 -10 19 -25 21 -33 2
-8 10 -20 19 -26 9 -7 13 -13 7 -13 -5 0 -1 -5 9 -11 9 -6 15 -14 12 -20 -4
-5 -1 -9 5 -9 6 0 8 -4 5 -10 -3 -5 -2 -10 4 -10 20 0 331 -565 331 -602 0 -9
-7 -21 -15 -28 -10 -9 -15 -9 -15 -1 0 8 -49 11 -164 11 -133 0 -166 -3 -176
-15 -7 -8 -18 -15 -25 -15 -10 0 -138 -238 -183 -339 -1 -3 78 -5 175 -4 l178
2 82 148 c99 179 112 201 113 188 0 -19 -180 -349 -302 -552 l-121 -203 -66
-2 c-36 -1 -130 -3 -208 -3 l-142 0 -26 45 c-14 25 -26 49 -25 54 1 5 -5 13
-14 18 -9 5 -14 13 -11 19 4 5 1 9 -5 9 -6 0 -9 4 -5 10 3 5 -2 18 -12 28 -10
10 -19 23 -20 28 -1 5 -36 70 -78 144 -43 74 -111 200 -152 280 -42 80 -80
147 -84 148 -21 8 -4 55 77 209 80 155 304 546 346 605 17 24 26 28 86 31 77
4 333 -3 345 -10z"/>
<path d="M1608 2458 c-94 -145 -403 -759 -395 -783 4 -8 14 -15 24 -15 13 0
43 -52 113 -192 52 -105 100 -191 105 -192 12 -1 69 107 151 282 l58 123 -32
76 -32 77 25 -24 26 -24 -25 56 c-14 31 -52 111 -86 178 -44 87 -59 128 -54
143 3 12 37 87 75 166 64 134 82 183 47 129z m-58 -570 c50 -101 90 -194 90
-208 0 -14 -41 -108 -90 -209 -106 -217 -84 -218 -198 17 -49 102 -76 169 -76
192 0 24 27 91 87 213 47 97 89 177 92 177 3 0 46 -82 95 -182z"/>
<path d="M844 1655 c-5 -12 98 -216 164 -324 l19 -32 175 -2 176 -2 -23 50
c-13 28 -53 112 -89 188 l-66 137 -175 0 c-145 0 -177 -3 -181 -15z"/>
<path d="M6 358 c4 -13 9 -96 11 -185 l4 -163 44 0 44 0 3 58 3 57 57 3 57 3
33 -60 33 -61 53 0 53 0 -37 68 -37 69 22 22 c67 67 47 177 -36 200 -21 6
-100 11 -177 11 l-138 0 8 -22z m266 -65 c20 -18 23 -45 8 -74 -9 -16 -22 -19
-90 -19 l-80 0 0 55 0 55 72 0 c52 0 76 -4 90 -17z"/>
<path d="M490 195 l0 -185 160 0 160 0 0 35 0 35 -110 0 -110 0 0 40 0 39 98
3 97 3 3 33 3 32 -100 0 -101 0 0 40 0 40 110 0 110 0 0 35 0 35 -160 0 -160
0 0 -185z"/>
<path d="M904 349 c3 -17 6 -101 6 -185 l0 -154 45 0 44 0 3 117 3 117 105
-117 c103 -114 106 -117 148 -117 l42 0 0 185 0 185 -45 0 -44 0 -3 -115 -3
-115 -104 115 -104 115 -50 0 -49 0 6 -31z"/>
<path d="M1516 353 c-18 -36 -98 -223 -125 -291 l-21 -52 49 0 c45 0 50 2 61
30 l12 30 100 0 99 0 10 -30 c10 -28 15 -30 60 -30 27 0 49 2 49 4 0 9 -113
272 -136 319 l-24 47 -60 0 c-55 0 -61 -2 -74 -27z m112 -127 c16 -41 27 -77
24 -80 -7 -8 -117 -8 -124 0 -7 6 54 154 63 154 4 0 20 -33 37 -74z"/>
<path d="M1857 278 c6 -189 19 -225 91 -255 50 -21 174 -19 219 4 69 34 78 57
81 214 l4 139 -51 0 -51 0 0 -128 c0 -155 -7 -167 -95 -167 -88 0 -95 12 -95
167 l0 128 -53 0 -53 0 3 -102z"/>
<path d="M2350 195 l0 -185 155 0 155 0 0 35 0 35 -105 0 -105 0 0 150 0 150
-50 0 -50 0 0 -185z"/>
<path d="M2619 375 c-1 -3 -1 -17 -2 -32 -1 -28 -1 -28 71 -31 l72 -3 0 -150
0 -150 48 3 47 3 2 145 1 145 71 3 71 3 0 34 0 35 -190 0 c-104 0 -190 -2
-191 -5z"/>
</g>
</svg>
