<?xml version="1.0" standalone="no"?>
<!DOCTYPE svg PUBLIC "-//W3C//DTD SVG 20010904//EN"
 "http://www.w3.org/TR/2001/REC-SVG-20010904/DTD/svg10.dtd">
<svg version="1.0" xmlns="http://www.w3.org/2000/svg"
 width="1079.000000pt" height="1069.000000pt" viewBox="0 0 1079.000000 1069.000000"
 preserveAspectRatio="xMidYMid meet">

<g transform="translate(0.000000,1069.000000) scale(0.100000,-0.100000)"
fill="#000000" stroke="none">
<path d="M0 5345 l0 -5345 5395 0 5395 0 0 5345 0 5345 -5395 0 -5395 0 0
-5345z m5516 3370 c473 -50 908 -175 1303 -375 237 -120 553 -319 568 -357 4
-10 -45 -67 -149 -171 -189 -192 -198 -203 -198 -256 0 -91 -5 -95 392 307
l373 378 140 -125 c191 -169 468 -475 545 -603 l33 -54 -114 -117 c-63 -64
-133 -138 -157 -163 l-43 -45 97 -160 c166 -274 318 -614 385 -857 17 -65 38
-125 46 -133 8 -8 29 -14 47 -14 l32 0 32 -147 c58 -277 73 -430 73 -768 0
-347 -19 -537 -82 -810 -51 -220 -44 -205 -89 -205 -48 0 -46 3 -111 -187 -62
-183 -105 -286 -181 -438 -320 -642 -831 -1182 -1458 -1542 -434 -249 -920
-405 -1450 -464 -148 -17 -610 -17 -760 0 -563 62 -1022 213 -1480 489 -638
383 -1141 935 -1454 1594 -63 131 -86 189 -169 423 l-42 120 -39 5 c-39 5 -40
6 -58 70 -32 109 -76 328 -95 470 -26 191 -26 767 0 950 23 160 77 431 90 448
5 6 26 12 47 12 36 0 38 2 44 38 14 91 130 402 224 602 110 235 279 504 455
725 125 157 508 525 683 655 511 382 1160 635 1809 704 180 19 532 20 711 1z
m3406 -912 c3 -478 4 -869 3 -871 -2 -2 -29 43 -60 100 -241 433 -439 709
-702 973 -234 236 -457 407 -763 585 -69 39 -127 74 -129 76 -2 2 367 4 821 4
l825 0 5 -867z"/>
<path d="M4325 8530 c-232 -26 -374 -63 -563 -146 -323 -142 -589 -300 -827
-490 -148 -118 -448 -420 -572 -575 -284 -357 -492 -740 -626 -1154 -20 -60
-39 -125 -42 -142 l-7 -33 405 0 404 0 48 118 c156 383 378 719 651 983 353
341 805 596 1260 710 107 27 148 32 239 32 227 0 504 -88 709 -225 33 -22 106
-87 161 -143 l100 -102 110 -32 c250 -73 481 -172 645 -277 199 -127 446 -346
580 -514 107 -134 215 -302 282 -436 l60 -121 291 -5 c161 -3 293 -4 295 -2 6
4 -47 143 -95 254 -309 699 -882 1250 -1588 1528 -365 143 -678 204 -1050 204
-357 0 -639 -45 -946 -151 -130 -45 -351 -139 -417 -178 -114 -66 -18 26 214
205 422 326 553 432 610 489 97 98 105 157 26 190 -45 19 -239 26 -357 13z"/>
<path d="M4985 7333 c-189 -16 -453 -78 -633 -148 -504 -197 -908 -549 -1173
-1020 -54 -97 -84 -163 -76 -171 7 -7 4079 -23 4125 -17 17 3 32 7 32 10 0 16
-132 259 -179 331 -369 559 -971 928 -1647 1007 -115 13 -341 18 -449 8z"/>
<path d="M1860 5360 l0 -80 94 0 93 0 141 -247 c77 -137 168 -296 202 -355
l62 -108 229 0 229 0 30 42 c17 23 54 85 82 138 182 342 273 507 287 518 9 7
46 12 98 12 l83 0 0 80 0 80 -302 -2 -303 -3 -3 -77 -3 -78 76 0 c75 0 76 -1
70 -22 -17 -56 -215 -410 -227 -406 -8 3 -199 310 -229 371 -11 21 -18 41 -15
45 3 3 42 7 86 10 l80 5 0 72 0 72 -232 6 c-128 4 -322 7 -430 7 l-198 0 0
-80z"/>
<path d="M3880 5429 c-205 -31 -377 -135 -451 -271 -31 -58 -34 -70 -34 -153
0 -78 4 -97 28 -147 63 -128 225 -238 406 -274 114 -22 297 -15 396 16 160 50
284 144 341 258 25 50 28 68 29 147 0 84 -3 94 -34 153 -20 36 -57 83 -85 108
-61 54 -205 126 -296 148 -85 21 -219 27 -300 15z m218 -178 c71 -50 108 -201
82 -333 -14 -76 -38 -123 -80 -163 -28 -27 -38 -30 -95 -30 -79 0 -107 18
-149 100 -27 53 -31 72 -34 162 -5 110 5 154 45 216 47 74 161 98 231 48z"/>
<path d="M4640 5360 l0 -80 78 0 c42 0 84 -5 92 -10 13 -8 15 -52 18 -274 l3
-265 -98 -3 -98 -3 0 -75 0 -75 603 -3 602 -2 0 205 0 205 -79 0 -80 0 -11
-53 c-14 -68 -39 -109 -91 -147 -66 -48 -151 -66 -254 -55 l-65 7 0 267 0 268
46 7 c26 3 64 6 85 6 l38 0 6 53 c4 29 5 64 3 78 l-3 24 -397 3 -398 2 0 -80z"/>
<path d="M5620 5360 l0 -80 84 0 c65 0 88 -4 104 -17 12 -10 51 -72 88 -138
37 -66 114 -202 170 -303 56 -101 114 -199 129 -218 l26 -34 232 2 232 3 147
270 c80 149 167 307 193 353 l46 82 90 0 89 0 0 80 0 80 -300 0 -300 0 0 -80
0 -80 71 0 71 0 -7 -27 c-3 -16 -54 -114 -113 -220 -80 -142 -110 -188 -118
-180 -16 17 -244 397 -244 407 0 10 53 20 111 20 57 0 62 10 57 101 l-3 54
-427 3 -428 2 0 -80z"/>
<path d="M7616 5425 c-163 -34 -267 -87 -358 -181 -220 -229 -81 -540 289
-646 102 -29 313 -32 413 -4 172 46 323 155 377 273 49 104 33 239 -39 339
-61 86 -188 164 -329 204 -97 27 -260 34 -353 15z m259 -185 c90 -87 108 -293
37 -424 -31 -56 -68 -83 -127 -92 -85 -12 -145 38 -185 156 -43 127 -9 314 66
367 43 30 54 33 117 30 50 -3 62 -8 92 -37z"/>
<path d="M1898 4043 c-104 -2 -188 -5 -188 -7 0 -2 13 -48 29 -102 149 -500
561 -1140 981 -1522 479 -436 979 -705 1603 -863 243 -61 424 -86 697 -96 215
-7 265 0 445 59 336 111 380 202 151 313 -99 47 -345 137 -496 181 -176 50
-627 214 -689 250 l-26 15 35 -6 c19 -3 96 -17 169 -31 368 -68 819 -53 1208
41 333 80 680 230 968 419 313 206 624 516 836 836 70 105 259 467 259 495 0
13 -37 15 -272 14 -150 -1 -284 -4 -298 -8 -19 -5 -38 -31 -78 -105 -180 -337
-505 -677 -840 -880 -124 -75 -184 -105 -327 -160 -190 -75 -190 -74 -231
-129 -80 -106 -158 -190 -228 -246 -344 -273 -840 -302 -1451 -84 -388 138
-732 358 -1015 649 -263 271 -452 554 -580 871 -19 45 -40 85 -49 88 -20 8
-386 13 -613 8z"/>
<path d="M3176 3988 c105 -209 347 -501 566 -685 293 -244 672 -422 1052 -494
161 -31 496 -38 672 -14 246 32 478 103 709 214 212 103 410 241 588 410 91
86 255 286 333 406 46 72 114 196 114 210 0 3 -914 5 -2030 5 l-2030 0 26 -52z"/>
</g>
</svg>
