<?xml version="1.0" encoding="utf-8"?>
<!-- Generator: Adobe Illustrator 25.0.0, SVG Export Plug-In . SVG Version: 6.00 Build 0)  -->
<svg version="1.1" id="ec20663a-47a1-42a3-991c-bc307f281f8f"
	 xmlns="http://www.w3.org/2000/svg" xmlns:xlink="http://www.w3.org/1999/xlink" x="0px" y="0px" viewBox="0 0 1114 593.5"
	 style="enable-background:new 0 0 1114 593.5;" xml:space="preserve">
<style type="text/css">
	.st0{opacity:0.1;fill:#00BFA6;enable-background:new    ;}
	.st1{opacity:0.8;}
	.st2{fill:#65617D;}
	.st3{fill:#DCE0ED;}
	.st4{opacity:0.1;enable-background:new    ;}
	.st5{fill:#F0F0F4;}
	.st6{fill:#636780;}
	.st7{opacity:0.1;fill:#FFFFFF;enable-background:new    ;}
	.st8{fill:#00BFA6;}
	.st9{opacity:0.15;enable-background:new    ;}
	.st10{fill:#A8A8A8;}
	.st11{opacity:0.2;enable-background:new    ;}
	.st12{fill:#444053;}
	.st13{fill:#33323D;}
	.st14{opacity:0.3;fill:#00BFA6;enable-background:new    ;}
	.st15{fill:none;}
</style>
<ellipse class="st0" cx="557" cy="419.8" rx="557" ry="173.8"/>
<g class="st1">
	<path class="st2" d="M359.8,106.4c9.4,13.2,16.7,51.8,18.7,63.4l16.9-0.3c-0.9-10-20.5-50.6-26-61.7
		C366.4,107.3,363.1,106.8,359.8,106.4z"/>
	
		<rect x="147.5" y="99.4" transform="matrix(1.888322e-02 -0.9998 0.9998 1.888322e-02 46.8015 253.8982)" class="st3" width="10.5" height="7.5"/>
	<path class="st4" d="M149.1,97.8l-0.1,3.4c0.5,0.2,1.1,0.2,1.6,0.2l5.9,0.1l0.1-3.6L149.1,97.8z"/>
	<path class="st3" d="M160.3,71.1l-7.1-0.1c-3.4-0.1-6.6,2-7.9,5.1c-2.2,5-4.1,13.1,0.4,21.3c1,1.9,2.9,3,5.1,3l9,0.1L160.3,71.1z"
		/>
	
		<ellipse transform="matrix(1.888322e-02 -0.9998 0.9998 1.888322e-02 71.1493 244.1824)" class="st5" cx="160" cy="85.8" rx="14.7" ry="7.6"/>
	
		<rect x="214.6" y="100.1" transform="matrix(1.888322e-02 -0.9998 0.9998 1.888322e-02 111.2487 321.0211)" class="st3" width="9.2" height="7.5"/>
	<path class="st4" d="M215.5,99.1l-0.1,2.9c0.5,0.2,1.1,0.2,1.6,0.2l5.9,0.1l0.1-3.1L215.5,99.1z"/>
	<path class="st3" d="M226.7,72.5l-7.1-0.1c-3.4-0.1-6.6,2-7.9,5.1c-2.2,5-4.1,13.1,0.4,21.3c1,1.9,2.9,3,5.1,3l9,0.1L226.7,72.5z"
		/>
	
		<ellipse transform="matrix(1.888003e-02 -0.9998 0.9998 1.888003e-02 134.9284 311.9349)" class="st5" cx="226.4" cy="87.2" rx="14.7" ry="7.6"/>
	<path class="st3" d="M224.7,77.9c0,0,2.8,0.5,1.3,4.2c-0.8,1.8-1.4,3.6-1.8,5.5c0,0-2.8,1.4-2.6-3.4S224.7,77.9,224.7,77.9z"/>
	
		<ellipse transform="matrix(1.888322e-02 -0.9998 0.9998 1.888322e-02 201.2767 791.7421)" class="st6" cx="504.1" cy="293.3" rx="48.4" ry="44.1"/>
	<path class="st4" d="M488.4,247.7c23.1,2,40.9,23.3,40.5,49c-0.4,20.7-12.6,38.1-29.4,44.7c-23.1-2-40.9-23.3-40.5-49
		C459.3,271.7,471.6,254.2,488.4,247.7z"/>
	
		<ellipse transform="matrix(1.888307e-02 -0.9998 0.9998 1.888307e-02 -23.3208 338.4905)" class="st6" cx="160.8" cy="181.1" rx="46.7" ry="35.8"/>
	<path class="st4" d="M171.7,136.6c14.7,6,25.2,24.1,24.8,45.3c-0.4,22.7-13.2,41.3-29.7,45.2c-14.7-6-25.2-24.1-24.8-45.3
		C142.4,159.2,155.2,140.5,171.7,136.6z"/>
	<path class="st2" d="M295.5,173.7l-0.3-17c0,0,3.5-7.2,6.8-7.8s11-0.9,11-0.9s5.5,24.5,1.4,31.7
		C310.2,186.9,295.5,173.7,295.5,173.7z"/>
	<path class="st4" d="M295.5,173.7l-0.3-17c0,0,3.5-7.2,6.8-7.8s11-0.9,11-0.9s5.5,24.5,1.4,31.7
		C310.2,186.9,295.5,173.7,295.5,173.7z"/>
	<path class="st2" d="M356.8,173c0,0,2.5-23.5-10.4-24.1c-1.7-0.1-3.3-0.2-5-0.3c-8.9-1-33.3-3.4-30.5,2.3c0,0,5.4,20.5,1.3,25.6
		L356.8,173z"/>
	<path class="st2" d="M173,213.1l-17.3,0.2c0,0-2.4-32-3.3-34.5s-1.2-14.5,2.1-16.2s14.2-3.6,14.2-3.6l7.6,18.3l0.3,16.5L173,213.1z
		"/>
	<path class="st4" d="M173,213.1l-17.3,0.2c0,0-2.4-32-3.3-34.5s-1.2-14.5,2.1-16.2s14.2-3.6,14.2-3.6l7.6,18.3l0.3,16.5L173,213.1z
		"/>
	<path class="st2" d="M215.9,161l0.1-3.6c0-1.1-0.8-2.1-2-2.1c0,0-0.1,0-0.1,0c-8.6,0.2-39.9,1.1-45.4,3.8c0,0,5.1,44.6-1.7,55.1
		l1.6,35.7l76.6-4.3L215.9,161z"/>
	<path class="st4" d="M222.9,104.9c-2.1-0.2-4.6-0.5-7.5-0.8l-0.1,4.3l7.5,0.1L222.9,104.9z"/>
	<path class="st4" d="M148.9,107.8l0,0.5l7.5,0.1l0.1-3.2C153.9,105.7,151.3,106.6,148.9,107.8z"/>
	<polygon class="st3" points="109.4,213.1 120.7,213.4 144.9,171.5 148.9,164.4 146.3,146.4 143.9,150.8 	"/>
	<polygon class="st3" points="212.6,162.8 217.1,169.9 231.4,151.4 237.9,142.9 234.2,137.6 231.2,141.1 	"/>
	<path class="st4" d="M231.2,141.1c0,0.4-0.1,0.7-0.1,1.1l0.3,9.1l6.5-8.5l-3.7-5.2L231.2,141.1z"/>
	<polygon class="st4" points="143.9,150.8 144.9,171.5 148.9,164.4 146.3,146.4 	"/>
	<path class="st3" d="M244.2,154.6c0,0,6.4-41.6-13.8-48.2c-0.3-0.1-0.5-0.1-0.8-0.2c-4.7-0.7-48.1-6.5-70.9-1c0,0-15.5,2-15.5,10.3
		l4.9,101.6l11.1,0.2l-2.4-67.2c0,0-4.8-29.3,4.1-31.2s48.9-4.4,63-0.1c0,0,10.3-2.1,8.2,23.3l0.4,13.6L244.2,154.6z"/>
	<path class="st2" d="M210,166.4c-0.1-2.2,0.9-4.4,2.7-5.7c3.2-2.3,12.9-7.2,12.9-7.2l3.1,0.3l8.9,23.4l-1.6,49.2l-17.2,20.5
		L210,166.4z"/>
	<path class="st4" d="M210,166.4c-0.1-2.2,0.9-4.4,2.7-5.7c3.2-2.3,12.9-7.2,12.9-7.2l3.1,0.3l8.9,23.4l-1.6,49.2l-17.2,20.5
		L210,166.4z"/>
	<path class="st2" d="M276.2,219.2l0.6-50.5c0,0,1.9-19.6-9.8-20.1c0,0-27.6-0.3-39.7,3.3c-1.4,0.4-2.2,1.9-1.8,3.3
		c0.1,0.2,0.1,0.3,0.2,0.5c2.3,4.2,6.1,15.3,7.5,43.6l-0.6,30.3L276.2,219.2z"/>
	<polygon class="st2" points="217.3,250.4 267.6,250.2 267.6,250.2 292.3,250.1 290.1,217 276.4,217.2 232.6,226.1 218.9,246.8 	"/>
	<polygon class="st4" points="217.3,250.4 267.6,250.2 267.6,250.2 292.3,250.1 290.1,217 276.4,217.2 232.6,226.1 218.9,246.8 	"/>
	<polygon class="st2" points="217.3,250.4 267.6,250.2 268.8,228 232.6,226.1 218.9,246.8 	"/>
	<path class="st7" d="M267.6,250.2l24.7-0.1l-2.2-33.1c0,0-8,12.2-21.3,11.1L267.6,250.2z"/>
	<path class="st3" d="M89.8,273.5c0.8,9.5,7.6,8.1,7.6,8.1l1.3-0.1l12.5-0.9l-0.2-14.7c-4.2-0.3-8.5-0.1-12.6,0.5
		C93.6,267.3,89.5,269.3,89.8,273.5z"/>
	<path class="st4" d="M89.8,273.5c0.8,9.5,7.6,8.1,7.6,8.1l1.3-0.1c1.4-2.1,2.1-4.6,2.1-7.1c0.2-2.9-0.7-5.7-2.5-8
		C93.6,267.3,89.5,269.3,89.8,273.5z"/>
	<path class="st6" d="M263.6,180.5c-0.3,15.4,8.7,28,20.1,28.2s20.8-12.1,21.1-27.4s-8.7-28-20.1-28.2S263.9,165.1,263.6,180.5z
		 M271.4,182.5c0.2-11.1,7.4-20.1,16.1-19.9s15.5,9.3,15.3,20.5c-0.2,11.1-7.4,20.1-16.1,19.9S271.2,193.6,271.4,182.5L271.4,182.5z
		"/>
	<polygon class="st6" points="283.1,189.4 273.2,198.7 269.9,190.2 284,182.3 	"/>
	<polygon class="st8" points="270.6,95.4 262.2,96.3 259,99.9 263.4,121.2 272.7,155.6 278.9,179.3 283.2,193.6 285.8,212.5 
		288.5,225.6 297.2,234.6 315.6,213.7 318.7,206.7 326,192.3 307.9,183.5 287.9,181.3 278.9,156.9 271.8,128.8 	"/>
	<polyline class="st2" points="438.4,199.8 447.7,292.1 309.7,283.7 326.5,238.8 353.4,222 292.6,221.8 292.7,196.6 317.4,191.7 
		367,188.7 404.3,187.7 439.6,200 	"/>
	<polyline class="st4" points="438.4,199.8 447.7,292.1 309.7,283.7 326.5,238.8 353.4,222 292.6,221.8 292.7,196.6 317.4,191.7 
		367,188.7 404.3,187.7 439.6,200 	"/>
	<path class="st6" d="M248.1,288c-0.4,22.9,6.8,43.8,27.9,42c26.6-0.1,29-18,29.5-40.9s-12.1-40.1-27.9-40.4S248.5,265.1,248.1,288z
		"/>
	<path class="st4" d="M247.9,288c0.3-17.7,8.3-31.8,19.2-37.1c13.9,2.9,24.2,19.1,23.8,40c-0.4,18.7-2.1,34.2-17.3,39.2
		C254.2,330.4,247.5,310.1,247.9,288z"/>
	<polygon class="st8" points="221.7,251.6 229.6,261 215,258.3 204.3,248 195,228.4 181.4,219.7 147.7,223.6 116.6,224.2 
		105.3,213.8 118.1,212.3 131.1,212.3 163.7,212.1 202.5,211.8 210.1,233.2 215.8,247.9 	"/>
	<path class="st2" d="M109.4,287.4c0.6,1,22.3,4.7,22.3,4.7l59.9,12.1l103.3,3.4l12.3-10.1l6.3,1.3l0.3,0l84.8,16.7l1.4-0.2
		l23.3-2.9l121.5-15l-1-17.6l-0.6-10.4l-1.3-21.6l-1.1-5.7l-10.8-1.2l-5-0.6l-78.5-8.7l-10.3-1.1l-5.8-0.6l-56-8.7l-81.9,0.4
		l0.1-25.3L262.2,96.3c-7.2,1-7.1,5.8-7.1,5.8l25.8,94.4l-0.8,57.7c-57.5,4.7-59.1-7.8-68.2-3.8l-10.3-35.3l-96.4-1.3
		C101.4,218.4,109.4,287.4,109.4,287.4z"/>
	<polygon class="st2" points="349.4,239.5 317.6,304.6 307.3,307.7 305,297 317.1,260.9 329.3,240 	"/>
	<polygon class="st9" points="349.4,239.5 317.6,304.6 307.3,307.7 305,297 317.1,260.9 329.3,240 	"/>
	
		<ellipse transform="matrix(1.887955e-02 -0.9998 0.9998 1.887955e-02 48.8817 674.1793)" class="st6" cx="368" cy="312.2" rx="62.8" ry="55.4"/>
	<path class="st4" d="M349.3,252.9c28.9,2.6,51.4,30.3,50.7,63.7c-0.5,26.9-15.9,49.6-37,58.1c-28.9-2.6-51.4-30.3-50.7-63.7
		C312.9,284.1,328.2,261.5,349.3,252.9z"/>
	<path class="st2" d="M518.4,205.2l2.5,13l7.6,39.7l36.1-2.8c0,0,2.3-6.6-3.3-9.2c0,0-1.4-22.5-8-29.7c-0.7-0.8-1.6-1.5-2.6-1.9
		L518.4,205.2z"/>
	<path class="st7" d="M520.9,218.1l7.6,39.7l36.1-2.8c0,0,2.3-6.6-3.3-9.2c0,0-1.4-22.5-8-29.7L520.9,218.1z"/>
	<path class="st2" d="M437.1,207.1c-4.8,7.7,5.1,79.9,5.1,79.9l88.8-13l-2-63c-1.6-11.3-8.2-12.8-8.2-12.8
		c-30.9-16.4-102.6-21.1-102.6-21.1c-65.5,1.3-125.5,19.4-125.5,19.4C367.4,186.5,437.1,207.1,437.1,207.1z"/>
	<path class="st4" d="M442.3,287l88.8-13l-2-63c-1.6-11.3-8.2-12.8-8.2-12.8s-64.5-7.4-83.8,8.9C432.3,214.8,442.3,287,442.3,287z"
		/>
	<path class="st2" d="M451.7,283l74.3-11.1l-1.6-53.8c-1.3-9.7-6.9-10.9-6.9-10.9s-53.9-6.3-70,7.6C443.4,221.5,451.7,283,451.7,283
		z"/>
	
		<ellipse transform="matrix(1.888322e-02 -0.9998 0.9998 1.888322e-02 211.0732 692.9765)" class="st4" cx="458.6" cy="238.9" rx="18.4" ry="10.1"/>
	
		<ellipse transform="matrix(1.888322e-02 -0.9998 0.9998 1.888322e-02 211.5807 692.4969)" class="st3" cx="458.6" cy="238.4" rx="18.4" ry="10.1"/>
	<path class="st5" d="M457.6,224.8c0,0,4.1,0.7,1.9,6.2c-1.2,2.6-2.1,5.4-2.6,8.3c0,0-4.2,2.1-3.9-5.1S457.6,224.8,457.6,224.8z"/>
	
		<ellipse transform="matrix(1.888322e-02 -0.9998 0.9998 1.888322e-02 270.7938 741.2675)" class="st4" cx="513.1" cy="232.7" rx="17.2" ry="9.5"/>
	
		<ellipse transform="matrix(1.888322e-02 -0.9998 0.9998 1.888322e-02 271.3014 740.7878)" class="st3" cx="513.1" cy="232.2" rx="17.2" ry="9.5"/>
	<path class="st5" d="M512,218.5c0,0,4.1,0.7,1.9,6.2c-1.2,2.6-2.1,5.4-2.6,8.3c0,0-4.2,2.1-3.9-5.1S512,218.5,512,218.5z"/>
	<path class="st4" d="M470.6,223.5c0.5,6.8,2.9,57.4,2.9,57.4l5.7-0.8l3.1-0.5l4.2-0.6l0.5-0.1l16.5-2.4l-2.2-53.6
		c-0.2-3.6-3.1-6.4-6.7-6.4c-0.2,0-0.3,0-0.5,0c-1.1,0.1-2.4,0.2-3.6,0.3c-0.5,0-1.1,0.1-1.6,0.2c-1.6,0.2-3.2,0.4-4.8,0.6
		c-0.8,0.1-1.6,0.3-2.4,0.4c-1.3,0.2-2.6,0.5-3.8,0.8c-0.8,0.2-1.6,0.4-2.3,0.7C472.4,220.4,470.4,221.8,470.6,223.5z"/>
	<path class="st2" d="M494.6,216.4l2.1,60.3l1.8-0.1l-2.1-59.9C495.8,216.5,495.2,216.4,494.6,216.4z"/>
	<path class="st2" d="M488.8,216.9l1.9,60.9l2.8,0.1l-3.1-61.1C489.9,216.8,489.3,216.8,488.8,216.9z"/>
	<path class="st2" d="M481.5,217.9l3.6,61.1l1.8,0l0-0.1l-3-61.4C483.1,217.6,482.3,217.8,481.5,217.9z"/>
	<path class="st2" d="M475.4,219.4l3.7,60.7l0,0.1l3.2-0.3l0-0.3l-4.6-60.9C476.9,218.9,476.1,219.2,475.4,219.4z"/>
	<path class="st4" d="M542.1,267.6c0,0,6.7-31.4-7.2-33.3s-59.8,0.6-58.7,13.6s2.2,32.7,2.2,32.7l9.5-1.9c0,0-6.5-29.8,4.6-30.7
		s38.3-3.5,38.3-3.5s7.4-1.1,2.6,24.9L542.1,267.6z"/>
	<path class="st3" d="M542,270.6c0,0,6.7-33.4-7.2-35.3s-59.8,0.6-58.7,13.6s2.2,32.7,2.2,32.7l9.5-1.9c0,0-6.5-29.8,4.6-30.7
		s38.3-3.5,38.3-3.5s7.3,0.9,2.6,26.8L542,270.6z"/>
	<path class="st2" d="M295,307.6l12.3,0.1c9.7-39.4,25-63.7,25-63.7c5-2.6,59.5-1.2,59.5-1.2c5.6,1.1,6.8,19.1,6.8,19.1
		s-4.9,4.1-0.3,6.8c2.1,1.2,8.9,1.6,16.8,1.3c9.8-0.3,21.2-1.6,27.1-3.3c10.7-3.1,2.3-9.4,2.3-9.4s-1.5-2-2.2-13
		c-0.6-6.4-2.5-12.6-5.7-18.2c-0.4-0.8-0.7-1.2-0.7-1.2c-0.5-0.5-1.2-1-1.9-1.3c-14-6.1-83.1-1.8-83.1-1.8l-25.7,7.7
		c-0.7,0.3-1.8,2.1-3.2,4.9C313.4,251.5,295,307.6,295,307.6z"/>
	<path class="st4" d="M295,307.6l12.3,0.1c9.7-39.4,25-63.7,25-63.7c5-2.6,59.5-1.2,59.5-1.2c5.6,1.1,6.8,19.1,6.8,19.1
		s-4.9,4.1-0.3,6.8c2.1,1.2,8.9,1.6,16.8,1.3c9.8-0.3,21.2-1.6,27.1-3.3c10.7-3.1,2.3-9.4,2.3-9.4s-1.5-2-2.2-13
		c-0.6-6.4-2.5-12.6-5.7-18.2c-0.4-0.8-0.7-1.2-0.7-1.2c-0.5-0.5-1.2-1-1.9-1.3c-14-6.1-83.1-1.8-83.1-1.8l-25.7,7.7
		c-0.7,0.3-1.8,2.1-3.2,4.9C313.4,251.5,295,307.6,295,307.6z"/>
	<path class="st2" d="M321.8,234.3c23.8-8.7,88.8-2.6,88.8-2.6c7-5.8,20-5.9,25.9-5.6c-0.4-0.8-0.7-1.2-0.7-1.2
		c-0.5-0.5-1.2-1-1.9-1.3c-14-6.1-83.1-1.8-83.1-1.8l-25.7,7.7C324.3,229.7,323.2,231.5,321.8,234.3z"/>
	<path class="st2" d="M406.7,234.1c1.4,5.2,7.2,25.9,7.2,25.9c0.6,3.3,1,6.6,1.2,10c9.8-0.3,21.2-1.6,27.1-3.3
		c10.7-3.1,2.3-9.4,2.3-9.4s-1.5-2-2.2-13c-0.6-6.9-2.8-13.5-6.4-19.4c-0.5-0.5-1.2-1-1.9-1.3C424.6,225.6,405.6,230.2,406.7,234.1z
		"/>
	<path class="st7" d="M406.7,234.1c1.4,5.2,7.2,25.9,7.2,25.9c0.6,3.3,1,6.6,1.2,10c9.8-0.3,21.2-1.6,27.1-3.3
		c10.7-3.1,2.3-9.4,2.3-9.4s-1.5-2-2.2-13c-0.6-6.9-2.8-13.5-6.4-19.4c-0.5-0.5-1.2-1-1.9-1.3C424.6,225.6,405.6,230.2,406.7,234.1z
		"/>
	<path class="st2" d="M262.2,96.3l30.5,100.3L420,178.2l-16.8-60.3c0,0-2.6-13.8-9.2-14.9C394,103,292.3,83.4,262.2,96.3z
		 M276.4,112c-4.1-13.5,56.3-6.8,56.3-6.8c8.1-0.6,17.9,0.1,27.1,1.2c3.3,0.4,6.6,0.9,9.6,1.3c6.8,1.1,12.5,2.2,16,2.9
		c2.2,0.5,3.4,0.7,3.4,0.7c12,4,17.9,53.9,17.9,53.9c0.9,5.3-5.3,4-5.3,4l-0.4,0l-5.7,0.1l-16.9,0.3l-82.3,1.7
		c-4.9-0.6-5.5-6.3-5.5-6.3C288.2,161,276.4,112,276.4,112z"/>
	<path class="st2" d="M401,169.4l0.4,0c0,0,6.2,1.2,5.3-4c0,0-5.9-50-17.9-53.9c0,0-1.3-0.3-3.4-0.7
		C389.6,119.3,403.1,148.9,401,169.4z"/>
	<path class="st4" d="M401,169.4l0.4,0c0,0,6.2,1.2,5.3-4c0,0-5.9-50-17.9-53.9c0,0-1.3-0.3-3.4-0.7
		C389.6,119.3,403.1,148.9,401,169.4z"/>
	<path class="st4" d="M387.6,292.1c1.4,2.8,4.3,4.5,7.4,4.4l2.5-0.1l24-0.6l8.6-0.2l8-0.5L543.8,280l-0.6-10.4l-12.1,1.5l-5,0.6
		l-74.6,9.2l-9.8,1.2l-4.8,0.6l-20.1-0.5l-21.8-0.6c-1.1,0-2.2,0.2-3.2,0.6c-1.9,0.7-3.4,2.1-4.3,3.9
		C386.6,288,386.6,290.2,387.6,292.1z"/>
	<path class="st3" d="M387.5,293.1c1.4,2.8,4.3,4.5,7.4,4.4l35.2-0.9l8-0.5L550.7,280l8.9-1.3l4.8-0.7c9.5-1.8,6.9-11.3,6.9-11.3
		c-0.6-4.3-16.8-8.6-22.1-8.6c-3.6,0-4.2,5.5-4.2,9.1c0,1.8,0.1,3.1,0.1,3.1l-5.3,0.7l-103,12.8l-41.9-1.1c-3.2-0.1-6.1,1.6-7.5,4.5
		C386.5,289,386.6,291.2,387.5,293.1z"/>
	<path class="st4" d="M556.7,264.2c0,0-4.6,5.4-11.6,6.1C545.1,270.3,548.1,264.2,556.7,264.2z"/>
	<path class="st4" d="M557.6,279.7c0,0,14.8-0.1,14.6,7.9s-9.5,9.1-9.5,9.1l-132.6,22.9l-37.6,0c0,0-12.9-10.7,0.8-15.1l37.9,1.7
		l126.4-20.7C557.6,285.5,554.4,281,557.6,279.7z"/>
	<path class="st3" d="M392.6,320.6l37.6,0L548,300.3l8.6-1.5l6.1-1c0,0,9.3-1.2,9.5-9.1c0.1-5.7-7.5-7.3-11.8-7.8
		c-1.7-0.2-2.9-0.2-2.9-0.2c-3.2,1.3,0.1,5.8,0.1,5.8l-4.6,0.8l-121.8,20l-37.9-1.7C379.7,309.9,392.6,320.6,392.6,320.6z"/>
	<path class="st3" d="M546.6,273l-7.7-3.6l-4-0.2l-0.3,33.6l12.3-2.3l5.2-3.2l2.8-13.9c0,0-0.9-5.8-1.4-6.3S546.6,273,546.6,273z"/>
	<path class="st4" d="M546.6,273l-7.7-3.6l-4-0.2l-0.3,33.6l12.3-2.3l5.2-3.2l2.8-13.9c0,0-0.9-5.8-1.4-6.3S546.6,273,546.6,273z"/>
	<path class="st4" d="M548,300.3c-0.1,0.1-0.1,0.2-0.1,0.2l8.7-1.5c0-0.1,0.1-0.1,0.1-0.2c4.7-7.3,5.2-13.2,3.8-17.9
		c-1.7-0.2-2.9-0.2-2.9-0.2c-3.2,1.3,0.1,5.8,0.1,5.8l-4.6,0.8C553.2,293.8,548.9,299.3,548,300.3z"/>
	<path class="st4" d="M535.8,269.1c1.4,0.6,2.8,1.2,4,1.8c5.5,2.8,8.9,5.9,10.9,9l8.9-1.3c-3.7-8-12.8-11.8-12.8-11.8l-1.9,0.4
		L535.8,269.1z"/>
	<path class="st3" d="M545.9,266.8c0,0,24.1,10.1,9.7,32.1l-8.7,1.5c0,0,17.5-19.3-12-31.3L545.9,266.8z"/>
	<polygon class="st3" points="487.8,276.6 478.9,276.1 479.7,312.1 494.2,309.7 500.4,306.9 503.4,299.8 505.5,292.7 500.8,286.1 
		495.4,282.3 	"/>
	<polygon class="st4" points="487.8,276.6 478.9,276.1 479.7,312.1 494.2,309.7 500.4,306.9 503.4,299.8 505.5,292.7 500.8,286.1 
		495.4,282.3 	"/>
	
		<ellipse transform="matrix(1.888322e-02 -0.9998 0.9998 1.888322e-02 184.1297 778.001)" class="st3" cx="488.5" cy="295.2" rx="7.3" ry="4.3"/>
	<path class="st6" d="M529.5,305.9c1.2,0.5,1.7,1.9,1.2,3.1c0,0.1-0.1,0.1-0.1,0.2c-1,1.8-2.2,4.2-2.1,4.8c0.2,1.1-2.2,0.1-2.5-0.1
		s-4.6-0.1-4.8-3c0-1.8,0.9-3.5,2.4-4.4l-0.9-6.4l5.9-0.4l-0.2,5.9L529.5,305.9z"/>
	<path class="st4" d="M529.5,305.9c1.2,0.5,1.7,1.9,1.2,3.1c0,0.1-0.1,0.1-0.1,0.2c-1,1.8-2.2,4.2-2.1,4.8c0.2,1.1-2.2,0.1-2.5-0.1
		s-4.6-0.1-4.8-3c0-1.8,0.9-3.5,2.4-4.4l-0.9-6.4l5.9-0.4l-0.2,5.9L529.5,305.9z"/>
	<path class="st4" d="M527.9,305.7c0,0-2.1,6.8-1.3,7.1S527.9,305.7,527.9,305.7z"/>
	<path class="st4" d="M525.7,304.1c0,0-2.1,6.8-1.3,7.1S525.7,304.1,525.7,304.1z"/>
	<path class="st6" d="M502.2,283l2.9,20.7c0,0,4.1-0.5,6.4-0.9c0.5-0.1,1-0.2,1.4-0.4c0.1-0.1,0.4-0.1,0.7,0l0,0
		c1.1,0.2,3.1,1.2,3.5,0.4c0-0.1,0.1-0.1,0.1-0.2l0,0c0.4-0.4,1.1-0.1,1.9,0c0.4,0.1,0.8,0.1,1.2-0.1c0.6-0.4,1.8,0.3,2.9,0.5
		c0.6,0.2,1.2,0.1,1.5-0.4c0.2-0.4,0.6-0.6,1-0.7l0,0c1-0.2,2.3,0,3.1-0.2c0.3-0.1,0.5-0.2,0.6-0.4c0.2-0.4,1-0.6,1.9-0.8
		c1.1-0.2,2.3-0.3,2.4-0.8c0-0.1,0.1-0.2,0.3-0.2c0.6,0.1,1.2,0.3,1.8,0.5l0,0c0.5,0.1,0.9,0.1,1-0.2c0.1-0.4,0.7-0.3,1.4-0.2
		c0.5,0.1,1.1,0.4,1.6,0.5c0.4,0.1,0.7,0.1,0.7-0.1c0.2-0.7,2.3,0.9,2.8-0.4s7.5-10-1.1-21.6c0,0-2.4,0.1-4.2,0.4
		c-0.6,0.1-1.2,0.2-1.8,0.5c0,0,0,0,0,0c-1,0.3-2.1,0.4-3.2,0.3c-0.6,0-1.2,0.1-1.8,0.4c-0.2,0.1-0.4,0.3-0.5,0.5
		c-0.3,0.6-0.9,0.7-1.6,0.7c-0.9-0.1-2-0.5-2.4-0.3c0,0,0,0,0,0c-0.7,0.3-3.3-0.1-3.8,0.4c0,0,0,0,0,0c-0.2,0.3-1.2,0-2.2-0.2l0,0
		c-0.7-0.2-1.5-0.1-2.1,0.3c-0.5,0.4-1,0.5-1.6,0.4c-0.7-0.1-1.4-0.1-2.1,0c-0.2,0-0.3,0.1-0.4,0.3c-0.4,0.5-1.4,0.4-2.3,0.5
		c-0.5,0-0.9,0.1-1.3,0.3c-0.1,0.1-0.3,0.2-0.5,0.2c-1.3,0.1-2.7,0-4-0.3L502.2,283z"/>
	<path class="st4" d="M538.1,299.6c0.5,0.1,1.1,0.4,1.6,0.5c6.9-10.3,1.4-18.4-1.7-21.7c-0.6,0.1-1.2,0.2-1.8,0.5
		C542.8,286.7,539.5,296.4,538.1,299.6z"/>
	<path class="st4" d="M533.9,299.5c0.6,0.1,1.2,0.3,1.8,0.5l0,0c6-10.1,0.2-17.9-2.8-20.9c-0.6,0-1.2,0.1-1.8,0.4
		C537.5,286.7,535.4,295.4,533.9,299.5z"/>
	<path class="st4" d="M528.7,301.6c0.3-0.1,0.5-0.2,0.6-0.4c0.2-0.4,1-0.6,1.9-0.8c5.2-9.2,0.8-16.3-2.2-19.8
		c-0.9-0.1-2-0.5-2.4-0.3c0,0,0,0,0,0C533.6,288.6,530,298.7,528.7,301.6z"/>
	<path class="st4" d="M523.1,303c0.6,0.2,1.2,0.1,1.5-0.4c0.2-0.4,0.6-0.6,1-0.7l0,0c6.1-10.2,0.2-18-2.7-21c0,0,0,0,0,0
		c-0.2,0.3-1.2,0-2.2-0.2C528.8,289.3,524.3,300.5,523.1,303z"/>
	<path class="st4" d="M517.2,302.5c0.4-0.4,1.1-0.1,1.9,0c6.3-10.1,0.8-17.9-2.2-21.2c-0.7-0.1-1.4-0.1-2.1,0
		C521.8,289.3,518.6,299.1,517.2,302.5z"/>
	<path class="st4" d="M511.5,302.7c0.5-0.1,1-0.2,1.4-0.4c0.1-0.1,0.4-0.1,0.7,0l0,0c5.6-9.2,1.4-16.5-1.6-20.1
		c-0.5,0-0.9,0.1-1.3,0.3c-0.1,0.1-0.3,0.2-0.5,0.2C516,290.5,512.8,299.7,511.5,302.7z"/>
	
		<ellipse transform="matrix(1.888322e-02 -0.9998 0.9998 1.888322e-02 28.7692 658.9955)" class="st6" cx="350.2" cy="314.8" rx="39.9" ry="27.1"/>
	
		<ellipse transform="matrix(1.888322e-02 -0.9998 0.9998 1.888322e-02 29.0563 660.4857)" class="st4" cx="351.1" cy="315.4" rx="32.3" ry="19.7"/>
	
		<ellipse transform="matrix(1.888322e-02 -0.9998 0.9998 1.888322e-02 30.0714 659.5265)" class="st5" cx="351.1" cy="314.4" rx="32.3" ry="19.7"/>
	
		<ellipse transform="matrix(1.888322e-02 -0.9998 0.9998 1.888322e-02 48.7136 635.0263)" class="st6" cx="347.9" cy="292.7" rx="4" ry="2.3"/>
	
		<ellipse transform="matrix(1.888322e-02 -0.9998 0.9998 1.888322e-02 4.2312 659.1237)" class="st6" cx="338" cy="327.4" rx="4" ry="2.3"/>
	
		<ellipse transform="matrix(1.888322e-02 -0.9998 0.9998 1.888322e-02 45.29 668.6846)" class="st6" cx="363.4" cy="311.3" rx="4" ry="2.3"/>
	
		<ellipse transform="matrix(1.888322e-02 -0.9998 0.9998 1.888322e-02 15.0489 684.1291)" class="st6" cx="356.1" cy="334.4" rx="4" ry="2.3"/>
	<path class="st2" d="M153.4,237.3c0,0-20.4,51.5-19.5,54.7c0,0-8.3,4.8-10.3,3.5s0.2-24.2,0.2-24.2l4.1-20.1l4.5-11.9L153.4,237.3z
		"/>
	<path class="st9" d="M153.4,237.3c0,0-20.4,51.5-19.5,54.7c0,0-8.3,4.8-10.3,3.5s0.2-24.2,0.2-24.2l4.1-20.1l4.5-11.9L153.4,237.3z
		"/>
	
		<ellipse transform="matrix(1.888322e-02 -0.9998 0.9998 1.888322e-02 23.0286 634.9572)" class="st6" cx="335" cy="305.7" rx="4" ry="2.3"/>
	
		<ellipse transform="matrix(1.888322e-02 -0.9998 0.9998 1.888322e-02 25.3654 657.0878)" class="st6" cx="347.5" cy="315.6" rx="9.5" ry="6.8"/>
	<path class="st6" d="M130.4,306.2c-0.6,30,8.9,57.5,36.6,55c34.9-0.1,38.1-23.6,38.7-53.6s-15.9-52.7-36.6-53
		S130.9,276.2,130.4,306.2z"/>
	<path class="st4" d="M130.1,306.2c0.4-23.2,10.9-41.7,25.2-48.6c18.2,3.8,31.8,25.1,31.3,52.4c-0.5,24.6-2.7,44.8-22.7,51.4
		C138.4,361.9,129.6,335.2,130.1,306.2z"/>
	<path class="st4" d="M115.9,293.2c0,0,4.9,4.3,7.7,1.4c0,0,7.7-53.7,16.2-53.8l29.2,0.3c0,0,3.5,1.6,4.8,8.1l17.8,54l103.3,3.4
		l8.2-16.4l-85.5-1.4l0,0c-0.4-1.7-13.7-52.9-23.2-59.5c0,0,0,0,0,0c-0.3-0.2-0.7-0.4-1-0.5c0,0-35.5-5.4-47.3-2.4
		c0,0-12.3,2.5-15.3,6.2c0,0,0,0,0,0c-0.4,0.4-5.1,5.5-6.8,20.5L115.9,293.2z"/>
	<path class="st2" d="M115.9,294.2c0,0,4.9,4.3,7.7,1.4c0,0,7.7-53.7,16.2-53.8l29.2,0.3c0,0,3.5,1.6,4.8,8.1l17.8,54l103.3,3.4
		l8.2-16.4l-85.5-1.4l0,0c-0.4-1.7-13.7-52.9-23.2-59.5c0,0,0,0,0,0c-0.3-0.2-0.7-0.4-1-0.5c0,0-35.5-5.4-47.3-2.4
		c0,0-12.3,2.5-15.3,6.2c0,0,0,0,0,0c-0.4,0.4-5.1,5.5-6.8,20.5L115.9,294.2z"/>
	<path class="st4" d="M115.9,294.2c0,0,4.9,4.3,7.7,1.4c0,0,7.7-53.7,16.2-53.8l29.2,0.3c0,0,3.5,1.6,4.8,8.1l17.8,54l103.3,3.4
		l8.2-16.4l-85.5-1.4l0,0c-0.4-1.7-13.7-52.9-23.2-59.5c0,0,0,0,0,0c-0.3-0.2-0.7-0.4-1-0.5c0,0-35.5-5.4-47.3-2.4
		c0,0-12.3,2.5-15.3,6.2c0,0,0,0,0,0c-0.4,0.4-5.1,5.5-6.8,20.5L115.9,294.2z"/>
	<path class="st2" d="M180.3,236.6c2.4,4.8,22.7,63.5,22.7,63.5l14.7-10.2l0,0c-0.4-1.7-13.8-53-23.2-59.5
		C188.2,231.3,178.7,233.3,180.3,236.6z"/>
	<path class="st2" d="M208.7,210.5l11,38.6l61.1-0.6l-0.6,5.7c0,0-48,6.1-68.2-3.8l-10.3-35.3l-96.4-1.3l18.4-4L208.7,210.5z"/>
	<path class="st7" d="M208.7,210.5l11,38.6l61.1-0.6l-0.6,5.7c0,0-48,6.1-68.2-3.8l-10.3-35.3l-96.4-1.3l18.4-4L208.7,210.5z"/>
	<path class="st4" d="M493.8,276.3c0,0,32.4,17.1,7.9,32.1l-6.5,1.4c0,0,24.1-16.7-15.3-33.7L493.8,276.3z"/>
	<path class="st3" d="M492.8,276.3c0,0,32.4,17.1,7.9,32.1l-6.5,1.4c0,0,24.1-16.7-15.3-33.7L492.8,276.3z"/>
	
		<ellipse transform="matrix(1.888322e-02 -0.9998 0.9998 1.888322e-02 -160.2588 458.435)" class="st6" cx="153.5" cy="310.9" rx="31.2" ry="18.2"/>
	
		<ellipse transform="matrix(1.888322e-02 -0.9998 0.9998 1.888322e-02 -160.3528 459.7071)" class="st4" cx="154.1" cy="311.6" rx="25.3" ry="13.2"/>
	
		<ellipse transform="matrix(1.888322e-02 -0.9998 0.9998 1.888322e-02 -159.3377 458.7479)" class="st5" cx="154.1" cy="310.6" rx="25.3" ry="13.2"/>
	
		<ellipse transform="matrix(1.888322e-02 -0.9998 0.9998 1.888322e-02 -144.3972 440.0053)" class="st6" cx="152" cy="293.6" rx="3.1" ry="1.6"/>
	
		<ellipse transform="matrix(1.888322e-02 -0.9998 0.9998 1.888322e-02 -178.169 459.8685)" class="st6" cx="145.2" cy="320.7" rx="3.1" ry="1.6"/>
	
		<ellipse transform="matrix(1.888322e-02 -0.9998 0.9998 1.888322e-02 -148.7345 464.5414)" class="st6" cx="162.3" cy="308.1" rx="3.1" ry="1.6"/>
	
		<ellipse transform="matrix(1.888322e-02 -0.9998 0.9998 1.888322e-02 -171.6428 477.3668)" class="st6" cx="157.4" cy="326.1" rx="3.1" ry="1.6"/>
	
		<ellipse transform="matrix(1.888322e-02 -0.9998 0.9998 1.888322e-02 -163.1336 441.3589)" class="st6" cx="143.3" cy="303.8" rx="3.1" ry="1.6"/>
	
		<ellipse transform="matrix(1.888322e-02 -0.9998 0.9998 1.888322e-02 -162.638 457.2409)" class="st6" cx="151.7" cy="311.5" rx="7.4" ry="4.6"/>
	<path class="st4" d="M420.2,177.3c0,0-55.4,0.9-127.5,19.3L420.2,177.3z"/>
	<path class="st3" d="M158.1,75.5c0,0,3,0.5,1.4,4.5c-0.9,1.9-1.5,3.9-1.9,6c0,0-3,1.5-2.8-3.7S158.1,75.5,158.1,75.5z"/>
	<path class="st2" d="M268.1,388.7c0.8,0,1.5-0.7,1.4-1.6c0-0.8-0.7-1.4-1.4-1.4c-0.8,0-1.5,0.7-1.4,1.6
		C266.7,388,267.3,388.6,268.1,388.7z"/>
</g>
<ellipse class="st0" cx="663.9" cy="451.6" rx="18.7" ry="3.2"/>
<path class="st10" d="M651.4,437c0,0,10.7-0.3,13.9-2.6s16.4-5,17.2-1.3s16,18.2,4,18.3s-27.9-1.9-31.2-3.8S651.4,437,651.4,437z"/>
<path class="st11" d="M686.6,450.1c-12,0.1-27.9-1.9-31.2-3.8c-2.4-1.5-3.4-6.8-3.7-9.3c-0.2,0-0.4,0-0.4,0s0.7,8.6,3.9,10.5
	s19.1,3.9,31.2,3.8c3.5,0,4.7-1.3,4.6-3.1C690.5,449.3,689.2,450,686.6,450.1z"/>
<ellipse class="st0" cx="772.2" cy="414.8" rx="14.4" ry="2.4"/>
<path class="st10" d="M762.6,403.6c0,0,8.2-0.3,10.7-2s12.6-3.9,13.2-1s12.3,14,3.1,14.1s-21.5-1.4-24-2.9S762.6,403.6,762.6,403.6z
	"/>
<path class="st11" d="M789.7,413.6c-9.3,0.1-21.5-1.4-24-2.9c-1.9-1.1-2.6-5.2-2.9-7.1c-0.2,0-0.3,0-0.3,0s0.5,6.6,3,8.1
	s14.7,3,24,2.9c2.7,0,3.6-1,3.5-2.4C792.7,413.1,791.7,413.6,789.7,413.6z"/>
<ellipse class="st0" cx="707" cy="568.4" rx="34.3" ry="5.8"/>
<path class="st10" d="M684,541.5c0,0,19.6-0.6,25.5-4.8s30.1-9.2,31.6-2.5c1.5,6.7,29.4,33.5,7.3,33.7s-51.3-3.4-57.2-7
	C685.2,557.3,684,541.5,684,541.5z"/>
<path class="st11" d="M748.7,565.5c-22.1,0.2-51.3-3.4-57.2-7c-4.5-2.7-6.3-12.5-6.9-17.1c-0.4,0-0.7,0-0.7,0s1.2,15.8,7.1,19.4
	c5.9,3.6,35.1,7.2,57.2,7c6.4-0.1,8.6-2.3,8.5-5.7C755.9,564.2,753.5,565.5,748.7,565.5z"/>
<path class="st2" d="M1062.7,407c0,55.6-40.5,100.6-90.4,100.6c-46.9,0-86.1-40-90.1-92c-0.1-1.6-0.2-3.3-0.3-4.9v-0.1
	c0-1.2-0.1-2.4-0.1-3.6c0-55.6,40.5-100.6,90.4-100.6C1022.3,306.4,1062.7,351.4,1062.7,407L1062.7,407z"/>
<path class="st11" d="M1062.7,407c0,55.6-40.5,100.6-90.4,100.6c-46.9,0-86.1-40-90.1-92c-0.1-1.6-0.2-3.3-0.3-4.9v-0.1
	c0-1.2-0.1-2.4-0.1-3.6c0-55.6,40.5-100.6,90.4-100.6C1022.3,306.4,1062.7,351.4,1062.7,407L1062.7,407z"/>
<ellipse class="st3" cx="972.3" cy="407" rx="49.3" ry="54.9"/>
<ellipse class="st2" cx="972.3" cy="407" rx="29.6" ry="32.9"/>
<path class="st2" d="M580,407c0,55.6-40.5,100.6-90.4,100.6c-46.9,0-86.1-40-90.1-92c-0.1-1.6-0.2-3.3-0.3-4.9v-0.1
	c0-1.2-0.1-2.4-0.1-3.6c0-55.6,40.5-100.6,90.5-100.6C539.6,306.5,580,351.5,580,407L580,407z"/>
<path class="st11" d="M580,407c0,55.6-40.5,100.6-90.4,100.6c-46.9,0-86.1-40-90.1-92c-0.1-1.6-0.2-3.3-0.3-4.9v-0.1
	c0-1.2-0.1-2.4-0.1-3.6c0-55.6,40.5-100.6,90.5-100.6C539.6,306.5,580,351.5,580,407L580,407z"/>
<ellipse class="st3" cx="489.6" cy="407" rx="49.3" ry="54.9"/>
<ellipse class="st2" cx="489.6" cy="407" rx="29.6" ry="32.9"/>
<path class="st12" d="M1090.9,388.1l-30.2-1.5l-27.5-56.9l-97.1-8.8l-47.2,68.6l2.6,19l-6.6,17.5L576.7,429v-8.8h-2.6l-2.6-13.1
	h23.6l-17.1-20.4l-60.3-56.9c0,0-103.6,2.9-104.9,0c-1.3-2.9,5.9-32.8,5.9-32.8l44.6-14.6l152.2-13.1c33.4-59.1,63.6-86.9,63.6-86.9
	H1070l18.4,105.1v0.2L1090.9,388.1z"/>
<path class="st13" d="M873.2,395.4c0,0,39.4-81.7,69.5-81.7h73.5c0,0,18.4,0,26.2,16.1l30.2,65.7H1049c0,0-19.7-61.3-42-62.8
	c-22.3-1.5-60.3,0-60.3,0s-13.1,0-21,17.5s-34.5,55.7-34.5,55.7S862.7,415.9,873.2,395.4z"/>
<polygon class="st13" points="1108,382.3 1058.7,382.3 1058.2,426.1 1108,412.9 "/>
<path class="st13" d="M394.4,356c0,0,2.6-21.9,21-30.7l120.7-7.3c0,0,19.7,1.5,30.2,29.2l34.1,56.9v8.8h-38c0,0-18.4-77.4-70.8-74.4
	h-63c0,0-14.4,0-19.7,26.3L394.4,356z"/>
<path class="st13" d="M677.7,191.1L677.7,191.1h402.7l0,0c0-8.9-6.5-16.1-14.4-16.1H692.2C684.2,175,677.7,182.2,677.7,191.1
	L677.7,191.1z"/>
<path class="st14" d="M764,277.2H652.6c-4.2,0-7.5-3.8-7.5-8.4c0-1.2,0.2-2.3,0.6-3.4l17.6-44.2c5.6-13.9,18-22.9,31.6-22.9h67.7
	c5.2,0,9.5,4.7,9.5,10.6l0,0v59.2C772.2,273.1,768.5,277.2,764,277.2L764,277.2z"/>
<path class="st14" d="M806.7,198.4h97.7c3.1,0,5.6,2.8,5.6,6.2v66.3c0,3.4-2.5,6.2-5.6,6.2h-97.7c-3.1,0-5.6-2.8-5.6-6.2v-66.3
	C801.1,201.2,803.6,198.4,806.7,198.4z"/>
<polygon class="st13" points="1088.3,287.4 1088.3,287.7 919.1,290.3 914.7,182.3 1070,182.3 "/>
<path class="st14" d="M939.1,198.4h113.4c3.1,0,5.6,2.8,5.6,6.2v66.3c0,3.4-2.5,6.2-5.6,6.2H939.1c-3.1,0-5.6-2.8-5.6-6.2v-66.3
	C933.5,201.2,936,198.4,939.1,198.4z"/>
<path class="st13" d="M739.9,304.9h38.4c1,0,1.8,0.9,1.8,2v4.8c0,1.1-0.8,2-1.8,2h-38.4c-1,0-1.8-0.9-1.8-2v-4.8
	C738.1,305.8,738.9,304.9,739.9,304.9z"/>
<path class="st13" d="M860.5,304.9H899c1,0,1.8,0.9,1.8,2v4.8c0,1.1-0.8,2-1.8,2h-38.4c-1,0-1.8-0.9-1.8-2v-4.8
	C858.8,305.8,859.6,304.9,860.5,304.9z"/>
<path class="st15" d="M370.6,418.1c-6.2,6.7-10.8,9.4-10.5,2.3c0.7-21.5-37.1-118.7-37.1-118.7l11.2-0.8
	C358.5,342.9,367.6,386.1,370.6,418.1z"/>
<rect x="51" y="246.8" class="st3" width="7" height="108"/>
<path class="st3" d="M51,246.8c0,0-26,1-31,3s-20,1-20,1v28c0,0,17-4,26-1s28-4,28-4L51,246.8z"/>
</svg>
